<svg width="438" height="285" viewBox="0 0 438 285" fill="none" xmlns="http://www.w3.org/2000/svg">
<path d="M18.7185 229.493V252.835H53.6221H92.1157V229.493H18.7185Z" fill="#F5F5F5"/>
<path d="M15.6414 222.967V229.494H94.6801V222.967H53.6221H15.6414Z" fill="#E0E0E0"/>
<path d="M55.1606 252.835H92.1157V229.494H94.68V222.967H53.6221V228.889L55.1606 252.835Z" fill="#E0E0E0"/>
<path d="M43.8719 233.256H28.9873V236.767H43.8719V233.256Z" fill="#E0E0E0"/>
<path d="M46.1799 241.161H27.0701V248.583H46.1799V241.161Z" fill="white"/>
<path d="M30.0132 199.654V222.996H64.911H103.405V199.654H30.0132Z" fill="#F5F5F5"/>
<path d="M26.9302 193.127V199.654H105.975V193.127H64.9109H26.9302Z" fill="#E0E0E0"/>
<path d="M66.4495 222.995H103.405V199.654H105.975V193.127H64.9109V199.05L66.4495 222.995Z" fill="#E0E0E0"/>
<path d="M55.1607 203.416H40.2761V206.927H55.1607V203.416Z" fill="#E0E0E0"/>
<path d="M57.4685 211.328H38.3586V218.749H57.4685V211.328Z" fill="white"/>
<path d="M75.1448 21.8596H20.8049V98.8951H75.1448V21.8596Z" fill="#E0E0E0"/>
<path d="M72.4172 21.8596H18.0774V98.8951H72.4172V21.8596Z" fill="#F5F5F5"/>
<path d="M65.6685 30.2043H24.832V90.5502H65.6685V30.2043Z" fill="white"/>
<path d="M65.6686 90.5504C65.6686 90.5504 65.6686 90.4478 65.6686 90.254C65.6686 90.0602 65.6686 89.7695 65.6686 89.399C65.6686 88.6409 65.6686 87.5294 65.6686 86.0873C65.6686 83.1974 65.6686 78.9794 65.6337 73.6556C65.6337 63.0194 65.5929 47.9486 65.5695 30.2045L65.7036 30.3356H24.8729L25.0186 30.1931C25.0186 52.9589 25.0186 73.9463 25.0186 90.539L24.9021 90.425L54.6247 90.482L62.8362 90.5105H64.9926C65.4821 90.5105 65.7386 90.5105 65.7386 90.5105H65.0159H62.8829H54.7237L24.9254 90.5732H24.8088V90.4592C24.8088 73.8665 24.8088 52.8791 24.8088 30.1133V29.9651H24.9604H65.791H65.9251V30.2102C65.9251 47.9885 65.8784 63.0878 65.8609 73.7525C65.8609 79.0592 65.8609 83.2658 65.8202 86.15C65.8202 87.5807 65.8202 88.6808 65.8202 89.4332C65.8202 89.798 65.8202 90.083 65.8202 90.2768C65.8202 90.4706 65.6686 90.5504 65.6686 90.5504Z" fill="#E0E0E0"/>
<path d="M72.5745 21.8596C72.2926 22.3468 71.9669 22.8084 71.6012 23.239C70.9718 24.0598 70.0743 25.1827 69.0544 26.3968C68.0345 27.6109 67.0729 28.6768 66.3677 29.452C66.0148 29.8828 65.6248 30.2832 65.2021 30.649C65.5079 30.1777 65.855 29.7334 66.2395 29.3209L68.8271 26.2201L71.4381 23.1136C71.7802 22.6652 72.1604 22.2457 72.5745 21.8596Z" fill="#E0E0E0"/>
<path d="M65.855 90.3564C67.8843 93.5138 70.2735 96.4357 72.9767 99.066L65.855 90.3564Z" fill="white"/>
<path d="M73.0002 99.0662C72.5458 98.7437 72.1294 98.3729 71.7588 97.9604C69.8645 96.0697 68.1716 93.9957 66.706 91.7702C66.3789 91.3255 66.1015 90.8477 65.8784 90.3452C66.2446 90.7579 66.5796 91.196 66.8808 91.6562C67.4636 92.477 68.3203 93.6056 69.2994 94.8083C70.2785 96.011 71.2227 97.0883 71.9103 97.8122C72.3036 98.2044 72.6677 98.6235 73.0002 99.0662Z" fill="#E0E0E0"/>
<path d="M18.0657 98.8323L25.1816 90.2424L18.0657 98.8323Z" fill="white"/>
<path d="M25.1874 90.2424C24.1212 91.7619 22.9734 93.225 21.7489 94.6257C20.5978 96.0904 19.3683 97.4945 18.0657 98.8323C19.1352 97.3137 20.2849 95.8507 21.51 94.449C22.6603 92.9853 23.8878 91.5813 25.1874 90.2424Z" fill="#E0E0E0"/>
<path d="M18.0657 21.8596C19.3074 23.1419 20.4748 24.4911 21.5624 25.9009C22.7166 27.2468 23.7926 28.655 24.7853 30.1189C23.5595 28.8339 22.4058 27.4848 21.3293 26.0776C20.1657 24.7293 19.0763 23.3213 18.0657 21.8596Z" fill="#E0E0E0"/>
<path d="M52.9461 42.4536H39.2737V80.427H52.9461V42.4536Z" fill="#E0E0E0"/>
<path d="M368.326 244.673C367.044 243.595 364.176 240.181 366.385 236.208C367.195 234.749 368.92 234.031 370.465 233.387C372.009 232.742 373.658 232.19 374.952 231.107C377.382 229.083 378.053 225.72 379.667 223.024C381.52 219.923 384.976 217.603 388.63 217.763C392.815 217.951 396.306 221.291 397.885 225.104C399.465 228.918 399.523 233.147 399.558 237.263C399.558 239.543 399.47 242.102 397.763 243.641C396.189 245.06 393.817 245.077 391.684 245.009L368.815 244.325" fill="#F5F5F5"/>
<path d="M412.064 183.175H351.926L362.76 246.348C362.983 247.665 363.585 248.893 364.494 249.889C365.402 250.885 366.582 251.608 367.894 251.974L368.104 252.031C368.285 252.071 368.454 252.134 368.64 252.162C369.043 252.243 369.453 252.289 369.864 252.299V252.362L370.161 252.316H396.97C397.465 252.315 397.959 252.267 398.445 252.174C400.008 251.936 401.45 251.204 402.547 250.089C403.645 248.974 404.339 247.538 404.523 246.001L409.768 202.47L410.001 200.76H409.972L412.035 183.5L412.064 183.175ZM400.717 223.469H394.551L395.175 205.137H402.326L400.717 223.469ZM402.92 205.137H408.83L406.627 223.469H401.318L402.92 205.137ZM385.291 243.795L384.912 227.869H393.8L393.258 243.795H385.291ZM375.681 227.869H384.318L384.691 243.795H376.945L375.681 227.869ZM376.345 243.795H369.107C368.419 239.497 367.521 233.905 366.554 227.869H375.08L376.345 243.795ZM375.319 223.469L373.862 205.137H383.77L384.201 223.469H375.319ZM384.795 223.469L384.364 205.137H394.551L393.969 223.469H384.795ZM384.265 200.737L383.863 183.762H395.286L394.703 200.737H384.265ZM383.682 200.737H373.524L372.178 183.762H383.251L383.682 200.737ZM372.93 200.737H362.183C361.804 198.394 361.443 196.177 361.116 194.176C359.998 187.336 359.578 184.731 359.368 183.762H371.607L372.93 200.737ZM373.279 205.137L374.736 223.469H365.849C365.552 221.61 365.266 219.729 364.945 217.848C364.246 213.516 363.553 209.19 362.894 205.137H373.279ZM365.248 223.469H359.421L356.273 205.137H362.27C363.209 210.803 364.246 217.107 365.243 223.469H365.248ZM365.96 227.869C366.84 233.381 367.708 238.813 368.506 243.795H362.935L360.201 227.869H365.96ZM393.864 243.795L394.406 227.869H400.339L398.952 243.795H393.864ZM395.327 200.737L395.909 183.762H404.197L402.711 200.737H395.327ZM358.779 183.762C359.018 184.988 360.114 191.668 361.583 200.737H355.545L352.631 183.762H358.779ZM404.197 243.795H399.534L400.962 227.869H406.132L404.197 243.795ZM409.36 200.737H403.293L404.774 183.762H411.394L409.36 200.737Z" fill="#E0E0E0"/>
<path d="M413.405 25.9863V77.7138H337.443L334.704 26.3511L413.405 25.9863Z" fill="#E0E0E0"/>
<path d="M334.704 26.3513V77.6057H410.666V26.3513L334.704 26.3513Z" fill="white"/>
<path d="M411.027 77.959H334.343V25.9978H411.027V77.959ZM335.066 77.2522H410.287V26.7046H335.066V77.2522Z" fill="#E0E0E0"/>
<path d="M402.437 32.718H342.933V71.2386H402.437V32.718Z" fill="white"/>
<path d="M402.437 32.718H402.145H401.3H398.031L385.792 32.7636L342.957 32.8491L343.126 32.6781C343.126 44.4486 343.126 57.4902 343.126 71.193L342.939 71.0106L402.442 71.0448L402.297 71.193C402.326 59.4681 402.355 49.8579 402.373 43.1661C402.373 39.8202 402.402 37.2096 402.413 35.4141C402.413 34.5287 402.413 33.8504 402.413 33.3792C402.413 32.9175 402.413 32.6724 402.413 32.6724C402.413 32.6724 402.413 32.8947 402.413 33.3507C402.413 33.8067 402.413 34.4907 402.413 35.3571C402.413 37.1412 402.413 39.7461 402.448 43.0749C402.448 49.7895 402.495 59.4339 402.53 71.193V71.3412H402.378L342.875 71.3754H342.688V71.25C342.688 57.57 342.688 44.5056 342.688 32.7351V32.5698H342.863L385.81 32.6496L398.048 32.6952H401.283H402.104L402.437 32.718Z" fill="#E0E0E0"/>
<path d="M334.704 26.2202C335.173 26.4419 335.611 26.7195 336.01 27.0467C336.791 27.6167 337.846 28.3748 338.988 29.2697C340.13 30.1646 341.138 31.0082 341.844 31.6409C342.253 31.9567 342.619 32.3226 342.933 32.7296C342.863 32.8094 341.033 31.3331 338.755 29.5547C336.476 27.7763 334.64 26.2886 334.704 26.2202Z" fill="#E0E0E0"/>
<path d="M410.666 26.3512C410.73 26.431 408.918 27.9187 406.668 29.68C404.418 31.4413 402.501 32.7979 402.437 32.7181C402.373 32.6383 404.185 31.1506 406.435 29.3893C408.685 27.628 410.602 26.2714 410.666 26.3512Z" fill="#E0E0E0"/>
<path d="M410.608 77.6112L402.128 70.9023L410.608 77.6112Z" fill="white"/>
<path d="M402.128 70.9023C402.198 70.8225 404.144 72.2589 406.481 74.1114C408.818 75.9639 410.666 77.5314 410.602 77.6112C410.538 77.691 408.585 76.2546 406.248 74.3964C403.911 72.5382 402.07 70.9764 402.128 70.9023Z" fill="#E0E0E0"/>
<path d="M334.704 77.6056C334.64 77.5258 336.412 76.0495 338.661 74.311C340.911 72.5725 342.782 71.2273 342.846 71.3071C342.91 71.3869 341.144 72.8632 338.895 74.6017C336.645 76.3402 334.768 77.6854 334.704 77.6056Z" fill="#E0E0E0"/>
<path d="M355.015 44.7166V57.6157H392.459V44.7166H355.015Z" fill="#E0E0E0"/>
<path d="M412.065 252.835C412.065 252.915 324.459 252.983 216.414 252.983C108.37 252.983 20.7466 252.915 20.7466 252.835C20.7466 252.755 108.335 252.687 216.414 252.687C324.494 252.687 412.065 252.749 412.065 252.835Z" fill="#263238"/>
<path d="M68.8736 53.5801H365.377C366.418 53.5801 367.417 53.9848 368.154 54.7053C368.891 55.4258 369.305 56.403 369.305 57.4219V242.501C369.303 244.701 368.409 246.812 366.818 248.368C365.227 249.924 363.069 250.799 360.819 250.8H72.8483C70.5962 250.8 68.4364 249.925 66.844 248.368C65.2516 246.81 64.3569 244.698 64.3569 242.495V57.9919C64.3585 56.8213 64.835 55.6991 65.6819 54.8719C66.5288 54.0447 67.6767 53.5801 68.8736 53.5801Z" fill="#455A64"/>
<path d="M51.6055 236.219H381.992V245.67C381.992 247.744 381.15 249.733 379.65 251.2C378.151 252.667 376.117 253.49 373.996 253.49H59.6014C57.4808 253.49 55.447 252.667 53.9474 251.2C52.4479 249.733 51.6055 247.744 51.6055 245.67V236.219Z" fill="#455A64"/>
<path d="M360.266 61.4062H72.5396V227.966H360.266V61.4062Z" fill="#F5F5F5"/>
<path d="M186.767 236.219L190.87 242.598H248.561L252.367 236.219H186.767Z" fill="#263238"/>
<path d="M369.357 236.157H64.4036V237.109H369.357V236.157Z" fill="#263238"/>
<path d="M154.009 53.5801H122.328V42.6589C122.328 34.9582 128.709 28.4431 136.583 28.4431L154.009 28.711V53.5801Z" fill="#E0E0E0"/>
<path d="M135.901 28.4259C135.901 28.4259 153.933 26.8242 153.933 49.8237V228.718H295.436V43.32C295.435 41.3217 295.031 39.3432 294.248 37.4977C293.465 35.6521 292.317 33.9756 290.871 32.5642C289.424 31.1528 287.708 30.0342 285.819 29.2722C283.93 28.5103 281.906 28.1201 279.863 28.1238L135.901 28.4259Z" fill="white"/>
<path d="M135.901 28.4259L240.589 28.0953L265.94 28.0269L279.42 27.987C281.782 27.9236 284.128 28.381 286.284 29.3253C288.44 30.2696 290.351 31.6766 291.875 33.4419C293.434 35.2591 294.541 37.4054 295.109 39.7119C295.259 40.2914 295.37 40.8797 295.441 41.4732C295.523 42.0432 295.517 42.6645 295.558 43.263C295.558 44.4524 295.558 45.6494 295.558 46.854C295.558 51.6534 295.558 56.5307 295.558 61.4859C295.558 71.3849 295.558 81.567 295.558 92.0322C295.558 133.836 295.558 179.812 295.558 228.034V228.866H295.406H153.904H153.764V228.73C153.764 166.793 153.805 114.2 153.822 77.1096C153.822 67.83 153.822 59.5194 153.822 52.2747C153.822 50.4621 153.822 48.7179 153.717 47.0478C153.615 45.445 153.389 43.852 153.041 42.2826C152.706 40.8524 152.242 39.4542 151.654 38.1045C151.101 36.899 150.421 35.7529 149.626 34.6845C148.265 32.9077 146.52 31.4461 144.515 30.4038C143.05 29.6462 141.479 29.1045 139.853 28.7964C138.866 28.6003 137.864 28.4896 136.857 28.4658C136.181 28.4658 135.831 28.4658 135.831 28.4658C136.173 28.4459 136.515 28.4459 136.857 28.4658C137.867 28.4822 138.873 28.5852 139.864 28.7736C141.49 29.0778 143.061 29.6156 144.527 30.3696C146.545 31.4084 148.303 32.8724 149.673 34.656C150.475 35.7241 151.162 36.8701 151.724 38.076C152.318 39.4311 152.788 40.835 153.129 42.2712C153.481 43.846 153.711 45.4447 153.816 47.0535C153.945 48.7293 153.927 50.4735 153.927 52.2861C153.927 59.5308 153.927 67.8414 153.927 77.121C153.927 114.234 153.956 166.828 153.98 228.741L153.84 228.61H295.342L295.191 228.758V228.074C295.191 179.835 295.191 133.876 295.191 92.0721C295.191 81.6183 295.191 71.4362 295.191 61.5258V46.854C295.156 44.4543 295.372 42.0489 294.754 39.7689C294.222 37.5202 293.172 35.4204 291.682 33.63C290.186 31.8922 288.309 30.5065 286.19 29.576C284.072 28.6454 281.766 28.1938 279.444 28.2549H265.935L240.542 28.2948L135.901 28.4259Z" fill="#263238"/>
<path d="M214.503 82.7185C214.503 82.7983 205.895 82.8667 195.271 82.8667C184.646 82.8667 176.038 82.7983 176.038 82.7185C176.038 82.6387 184.64 82.5703 195.271 82.5703C205.901 82.5703 214.503 82.6501 214.503 82.7185Z" fill="#263238"/>
<path d="M223.116 87.21C223.116 87.2955 212.585 87.3582 199.589 87.3582C186.593 87.3582 176.067 87.2955 176.067 87.21C176.067 87.1245 186.599 87.0618 199.589 87.0618C212.58 87.0618 223.116 87.1302 223.116 87.21Z" fill="#263238"/>
<path d="M226.205 104.908C226.205 104.988 215.33 105.057 201.914 105.057C188.498 105.057 177.624 104.988 177.624 104.908C177.624 104.829 188.498 104.76 201.914 104.76C215.33 104.76 226.205 104.823 226.205 104.908Z" fill="#263238"/>
<path d="M257.939 122.157C257.939 122.237 239.755 122.305 217.329 122.305C194.903 122.305 176.72 122.237 176.72 122.157C176.72 122.077 194.898 122.009 217.329 122.009C239.761 122.009 257.939 122.071 257.939 122.157Z" fill="#263238"/>
<path d="M257.939 127.298C257.939 127.384 239.755 127.446 217.329 127.446C194.903 127.446 176.72 127.384 176.72 127.298C176.72 127.213 194.898 127.15 217.329 127.15C239.761 127.15 257.939 127.218 257.939 127.298Z" fill="#263238"/>
<path d="M257.939 132.445C257.939 132.531 239.755 132.594 217.329 132.594C194.903 132.594 176.72 132.531 176.72 132.445C176.72 132.36 194.898 132.297 217.329 132.297C239.761 132.297 257.939 132.366 257.939 132.445Z" fill="#263238"/>
<path d="M257.939 137.592C257.939 137.672 239.755 137.74 217.329 137.74C194.903 137.74 176.72 137.672 176.72 137.592C176.72 137.512 194.898 137.444 217.329 137.444C239.761 137.444 257.939 137.512 257.939 137.592Z" fill="#263238"/>
<path d="M257.939 142.74C257.939 142.819 239.755 142.888 217.329 142.888C194.903 142.888 176.72 142.819 176.72 142.74C176.72 142.66 194.898 142.591 217.329 142.591C239.761 142.591 257.939 142.654 257.939 142.74Z" fill="#263238"/>
<path d="M207.521 147.886C207.521 147.966 200.621 148.035 192.118 148.035C183.615 148.035 176.72 147.966 176.72 147.886C176.72 147.807 183.615 147.738 192.118 147.738C200.621 147.738 207.521 147.801 207.521 147.886Z" fill="#263238"/>
<path d="M269.833 169.609C269.833 169.689 261.767 169.757 251.825 169.757C241.883 169.757 233.811 169.689 233.811 169.609C233.811 169.529 241.877 169.461 251.825 169.461C261.773 169.461 269.833 169.529 269.833 169.609Z" fill="#263238"/>
<path d="M269.833 174.58C269.833 174.659 261.767 174.728 251.825 174.728C241.883 174.728 233.811 174.659 233.811 174.58C233.811 174.5 241.859 174.42 251.831 174.42C261.802 174.42 269.833 174.5 269.833 174.58Z" fill="#263238"/>
<path d="M267.444 196.177C267.435 196.094 267.435 196.009 267.444 195.926C267.444 195.749 267.415 195.51 267.391 195.202C267.391 195.043 267.38 194.866 267.356 194.672C267.356 194.473 267.292 194.262 267.257 194.034C267.185 193.502 267.074 192.976 266.925 192.46C266.558 191.034 265.968 189.671 265.177 188.419C263.328 185.394 260.458 183.093 257.061 181.915C253.664 180.736 249.954 180.752 246.568 181.961C245.877 182.205 245.203 182.494 244.552 182.827C243.892 183.183 243.257 183.581 242.652 184.019C242.037 184.467 241.453 184.955 240.903 185.478C240.36 186.03 239.854 186.617 239.388 187.234C238.426 188.496 237.68 189.904 237.179 191.4C236.115 194.498 236.115 197.85 237.179 200.948C237.68 202.444 238.426 203.852 239.388 205.114C239.854 205.731 240.36 206.318 240.903 206.87C241.453 207.393 242.037 207.881 242.652 208.329C243.841 209.21 245.162 209.906 246.568 210.393C249.164 211.314 251.964 211.544 254.681 211.06C256.845 210.664 258.899 209.823 260.708 208.594C262.516 207.365 264.037 205.775 265.171 203.929C265.962 202.677 266.552 201.314 266.919 199.888C267.069 199.372 267.18 198.846 267.252 198.314C267.287 198.086 267.327 197.875 267.351 197.682C267.374 197.488 267.351 197.305 267.386 197.146C267.386 196.838 267.426 196.576 267.438 196.422C267.429 196.341 267.429 196.258 267.438 196.177C267.446 196.258 267.446 196.34 267.438 196.422V197.152C267.438 197.311 267.438 197.494 267.438 197.687C267.438 197.881 267.386 198.098 267.351 198.332C267.292 198.867 267.191 199.396 267.048 199.916C266.699 201.36 266.125 202.742 265.346 204.014C263.491 207.099 260.591 209.451 257.148 210.663C253.705 211.875 249.938 211.87 246.498 210.649C245.793 210.403 245.105 210.11 244.441 209.771C243.767 209.413 243.12 209.007 242.506 208.557C241.875 208.103 241.275 207.608 240.711 207.075C240.156 206.513 239.64 205.915 239.167 205.285C238.185 203.999 237.423 202.565 236.911 201.039C235.824 197.883 235.824 194.465 236.911 191.309C237.424 189.784 238.186 188.35 239.167 187.063C239.641 186.434 240.159 185.837 240.717 185.278C241.279 184.744 241.877 184.247 242.506 183.791C244.274 182.514 246.297 181.615 248.443 181.151C250.588 180.688 252.81 180.67 254.963 181.1C257.117 181.53 259.154 182.398 260.942 183.647C262.731 184.896 264.231 186.498 265.346 188.351C266.124 189.624 266.698 191.006 267.048 192.449C267.191 192.971 267.292 193.502 267.351 194.039C267.386 194.273 267.421 194.484 267.438 194.678C267.456 194.872 267.438 195.054 267.438 195.219V195.943C267.447 196.021 267.449 196.099 267.444 196.177Z" fill="#FF725F"/>
<path d="M261.582 198.438C262.865 193.165 259.534 187.872 254.141 186.618C248.749 185.364 243.338 188.622 242.056 193.896C240.773 199.169 244.105 204.462 249.497 205.716C254.889 206.97 260.3 203.712 261.582 198.438Z" fill="#FF725F"/>
<path d="M274.146 187.724L273.726 187.952L272.473 188.602L267.654 191.058L260.037 194.94C259.262 195.334 258.424 195.597 257.56 195.715C257.089 195.773 256.611 195.733 256.157 195.597C255.703 195.462 255.283 195.234 254.926 194.929C254.545 194.607 254.275 194.179 254.15 193.703C254.079 193.455 254.072 193.193 254.13 192.941C254.188 192.689 254.309 192.456 254.483 192.261C254.846 191.872 255.349 191.635 255.887 191.6C256.169 191.563 256.455 191.616 256.703 191.751C256.951 191.887 257.148 192.098 257.263 192.352V192.392C257.277 194.038 256.678 195.633 255.578 196.878C255.003 197.551 254.292 198.101 253.49 198.493C252.688 198.886 251.812 199.112 250.916 199.158C249.971 199.208 249.026 199.071 248.136 198.757C247.246 198.443 246.429 197.957 245.735 197.328C244.984 196.685 244.461 195.825 244.243 194.872C244.142 194.37 244.212 193.849 244.441 193.39C244.674 192.919 245.077 192.549 245.572 192.352C245.828 192.256 246.105 192.225 246.377 192.262C246.65 192.299 246.908 192.402 247.128 192.563C247.548 192.891 247.855 193.336 248.008 193.84C248.174 194.327 248.254 194.837 248.247 195.35C248.27 195.605 248.27 195.86 248.247 196.114C248.234 196.371 248.201 196.626 248.148 196.878C247.738 198.951 246.584 200.813 244.896 202.128C244.044 202.818 243.055 203.326 241.991 203.62C240.928 203.915 239.813 203.989 238.718 203.838C236.462 203.468 234.438 202.264 233.065 200.475C232.263 199.472 231.709 198.301 231.445 197.055C231.159 195.816 231.258 194.522 231.73 193.338C231.987 192.746 232.422 192.245 232.977 191.902C233.541 191.561 234.214 191.437 234.866 191.554C235.185 191.625 235.484 191.764 235.742 191.961C236 192.158 236.21 192.409 236.358 192.694C236.642 193.234 236.85 193.81 236.975 194.404C237.522 196.709 237.373 199.119 236.544 201.341C235.76 203.481 234.248 205.292 232.261 206.471C230.37 207.599 228.148 208.074 225.949 207.822C224.9 207.697 223.884 207.376 222.959 206.876C222.064 206.382 221.273 205.726 220.628 204.944C219.383 203.472 218.701 201.621 218.699 199.711C218.718 198.812 218.916 197.925 219.282 197.1C219.439 196.692 219.68 196.32 219.991 196.007C220.302 195.694 220.676 195.447 221.088 195.282C221.508 195.154 221.956 195.142 222.382 195.248C222.782 195.376 223.147 195.593 223.449 195.881C224.011 196.435 224.432 197.11 224.678 197.853C224.931 198.538 225.063 199.261 225.069 199.99C225.069 200.344 225.069 200.686 225.069 201.028C225.069 201.37 225.04 201.7 225.005 202.025C224.786 204.264 224.119 206.439 223.041 208.426C222.363 209.679 221.525 210.841 220.546 211.886C220.214 212.245 219.934 212.496 219.748 212.667C219.562 212.838 219.462 212.918 219.462 212.918C219.462 212.918 219.55 212.821 219.731 212.644C219.911 212.468 220.173 212.211 220.5 211.846C221.452 210.789 222.27 209.624 222.936 208.375C223.984 206.395 224.629 204.234 224.836 202.014C224.871 201.689 224.888 201.358 224.894 201.022C224.9 200.686 224.894 200.344 224.894 199.996C224.884 199.286 224.752 198.583 224.504 197.915C224.27 197.207 223.871 196.561 223.338 196.029C223.059 195.767 222.722 195.572 222.353 195.459C221.969 195.365 221.565 195.377 221.188 195.493C220.804 195.651 220.457 195.884 220.17 196.178C219.882 196.472 219.659 196.821 219.515 197.203C219.175 198.002 218.995 198.857 218.985 199.722C218.996 201.578 219.663 203.372 220.873 204.801C221.502 205.571 222.281 206.212 223.164 206.688C224.047 207.163 225.017 207.463 226.019 207.571C228.158 207.812 230.318 207.346 232.156 206.249C234.089 205.096 235.556 203.326 236.311 201.239C237.119 199.069 237.263 196.716 236.725 194.467C236.608 193.898 236.412 193.348 236.142 192.831C236.015 192.579 235.833 192.358 235.608 192.184C235.383 192.009 235.122 191.886 234.842 191.822C234.266 191.72 233.67 191.834 233.176 192.141C232.668 192.449 232.275 192.906 232.051 193.447C231.6 194.572 231.507 195.803 231.783 196.981C232.038 198.184 232.575 199.314 233.35 200.281C234.678 202.006 236.629 203.168 238.805 203.53C239.861 203.67 240.934 203.595 241.957 203.307C242.981 203.019 243.932 202.527 244.75 201.86C246.385 200.591 247.501 198.791 247.897 196.787C247.99 196.302 248.029 195.809 248.014 195.316C248.023 194.832 247.948 194.351 247.792 193.891C247.654 193.445 247.385 193.048 247.017 192.751C246.835 192.619 246.621 192.534 246.396 192.504C246.17 192.474 245.941 192.5 245.729 192.58C245.302 192.754 244.954 193.074 244.75 193.481C244.547 193.888 244.486 194.348 244.575 194.792C244.788 195.678 245.282 196.476 245.985 197.072C246.65 197.678 247.433 198.147 248.287 198.452C249.141 198.756 250.049 198.89 250.957 198.845C251.816 198.801 252.656 198.584 253.426 198.207C254.195 197.83 254.876 197.302 255.427 196.656C256.493 195.456 257.077 193.919 257.07 192.329V192.369C256.974 192.154 256.807 191.977 256.596 191.867C256.384 191.756 256.141 191.718 255.905 191.759C255.429 191.785 254.983 191.989 254.657 192.329C254.506 192.498 254.4 192.701 254.349 192.92C254.299 193.139 254.304 193.367 254.366 193.583C254.476 194.026 254.725 194.425 255.077 194.723C255.41 195.012 255.802 195.227 256.228 195.355C256.653 195.483 257.101 195.52 257.542 195.464C258.386 195.356 259.204 195.105 259.961 194.723L267.595 190.922L272.45 188.522L273.715 187.901L274.146 187.724Z" fill="#263238"/>
<path d="M221.939 47.1106C221.939 47.1961 209.613 47.2645 194.408 47.2645C179.203 47.2645 166.871 47.1961 166.871 47.1106C166.871 47.0251 179.197 46.9624 194.408 46.9624C209.619 46.9624 221.939 47.0308 221.939 47.1106Z" fill="#E0E0E0"/>
<path d="M231.118 47.1106C229.853 47.3158 228.561 47.3158 227.295 47.1106C228.562 46.913 229.852 46.913 231.118 47.1106Z" fill="#E0E0E0"/>
<path d="M285.936 47.1106C285.936 47.1961 274.688 47.2645 260.823 47.2645C246.959 47.2645 235.711 47.1961 235.711 47.1106C235.711 47.0251 246.947 46.9624 260.823 46.9624C274.7 46.9624 285.936 47.0308 285.936 47.1106Z" fill="#E0E0E0"/>
<path d="M221.939 62.0957C221.939 62.1812 209.613 62.2439 194.408 62.2439C179.203 62.2439 166.871 62.1812 166.871 62.0957C166.871 62.0102 179.197 61.9475 194.408 61.9475C209.619 61.9475 221.939 62.0159 221.939 62.0957Z" fill="#E0E0E0"/>
<path d="M231.118 62.0957C229.852 62.2933 228.562 62.2933 227.295 62.0957C228.562 61.8981 229.852 61.8981 231.118 62.0957Z" fill="#E0E0E0"/>
<path d="M285.936 62.0957C285.936 62.1812 274.688 62.2439 260.823 62.2439C246.959 62.2439 235.711 62.1812 235.711 62.0957C235.711 62.0102 246.947 61.9475 260.823 61.9475C274.7 61.9475 285.936 62.0159 285.936 62.0957Z" fill="#E0E0E0"/>
<path d="M272.462 121.41L258.014 154.248C257.945 154.401 257.925 154.57 257.956 154.735C257.988 154.899 258.07 155.05 258.191 155.168C258.312 155.286 258.467 155.366 258.635 155.396C258.804 155.426 258.977 155.405 259.133 155.336L270.271 150.526C270.38 150.476 270.499 150.45 270.619 150.449C270.739 150.448 270.859 150.472 270.969 150.52C271.079 150.567 271.177 150.637 271.258 150.724C271.339 150.812 271.399 150.915 271.436 151.027L275.195 162.057C275.253 162.219 275.36 162.36 275.504 162.459C275.647 162.559 275.818 162.612 275.994 162.612C276.169 162.612 276.34 162.559 276.484 162.459C276.627 162.36 276.734 162.219 276.792 162.057L290.377 126.637L272.462 121.41Z" fill="#FF725F"/>
<path d="M291.292 126.899L298.21 162C298.242 162.164 298.324 162.314 298.445 162.432C298.566 162.55 298.721 162.629 298.888 162.66C299.056 162.691 299.23 162.671 299.386 162.604C299.543 162.537 299.675 162.426 299.766 162.285L306.211 152.19C306.274 152.092 306.357 152.008 306.454 151.943C306.552 151.878 306.663 151.833 306.779 151.812C306.895 151.791 307.015 151.795 307.13 151.821C307.245 151.848 307.353 151.898 307.447 151.968L316.894 159.03C317.034 159.133 317.202 159.191 317.377 159.197C317.552 159.203 317.724 159.156 317.871 159.062C318.017 158.969 318.131 158.834 318.196 158.675C318.261 158.516 318.274 158.341 318.234 158.175L309.108 121.41L291.292 126.899Z" fill="#FF725F"/>
<g opacity="0.3">
<path d="M272.462 121.41L258.014 154.248C257.945 154.401 257.925 154.57 257.956 154.735C257.988 154.899 258.07 155.05 258.191 155.168C258.312 155.286 258.467 155.366 258.635 155.396C258.804 155.426 258.977 155.405 259.133 155.336L270.271 150.526C270.38 150.476 270.499 150.45 270.619 150.449C270.739 150.448 270.859 150.472 270.969 150.52C271.079 150.567 271.177 150.637 271.258 150.724C271.339 150.812 271.399 150.915 271.436 151.027L275.195 162.057C275.253 162.219 275.36 162.36 275.504 162.459C275.647 162.559 275.818 162.612 275.994 162.612C276.169 162.612 276.34 162.559 276.484 162.459C276.627 162.36 276.734 162.219 276.792 162.057L290.377 126.637L272.462 121.41Z" fill="black"/>
</g>
<g opacity="0.3">
<path d="M291.292 126.899L298.21 162C298.242 162.164 298.324 162.314 298.445 162.432C298.566 162.55 298.721 162.629 298.888 162.66C299.056 162.691 299.23 162.671 299.386 162.604C299.543 162.537 299.675 162.426 299.766 162.285L306.211 152.19C306.274 152.092 306.357 152.008 306.454 151.943C306.552 151.878 306.663 151.833 306.779 151.812C306.895 151.791 307.015 151.795 307.13 151.821C307.245 151.848 307.353 151.898 307.447 151.968L316.894 159.03C317.034 159.133 317.202 159.191 317.377 159.197C317.552 159.203 317.724 159.156 317.871 159.062C318.017 158.969 318.131 158.834 318.196 158.675C318.261 158.516 318.274 158.341 318.234 158.175L309.108 121.41L291.292 126.899Z" fill="black"/>
</g>
<path d="M291.991 63.8744L296.735 60.4658L300.465 64.9175L305.926 62.7743L308.403 67.9955L314.242 67.2431L315.309 72.9032L321.154 73.5929L320.752 79.3385L326.236 81.4247L324.389 86.891L329.168 90.254L325.991 95.099L329.768 99.5108L325.449 103.432L327.99 108.625L322.815 111.373L323.952 117.021L318.24 118.423L317.902 124.169L312.016 124.141L310.227 129.624L304.533 128.165L301.403 133.038L296.263 130.24L291.991 134.201L287.725 130.24L282.585 133.038L279.455 128.165L273.761 129.624L271.972 124.141L266.086 124.169L265.748 118.423L260.037 117.021L261.173 111.373L255.998 108.625L258.533 103.432L254.22 99.5108L257.997 95.099L254.82 90.254L259.599 86.891L257.746 81.4247L263.236 79.3385L262.834 73.5929L268.679 72.9032L269.746 67.2431L275.585 67.9955L278.062 62.7743L283.523 64.9175L287.247 60.4658L291.991 63.8744Z" fill="#FF725F"/>
<path d="M310.845 115.773C321.257 105.589 321.257 89.078 310.845 78.8941C300.432 68.7103 283.55 68.7103 273.138 78.8942C262.725 89.0781 262.725 105.589 273.138 115.773C283.55 125.957 300.432 125.957 310.845 115.773Z" fill="white"/>
<path d="M297.807 91.1544L304.958 92.1804C305.223 92.218 305.472 92.3275 305.677 92.4964C305.882 92.6653 306.034 92.887 306.116 93.1362C306.199 93.3854 306.208 93.6522 306.144 93.9064C306.079 94.1606 305.943 94.392 305.751 94.5744L300.57 99.5049C300.403 99.6634 300.277 99.8594 300.205 100.076C300.133 100.293 300.116 100.523 300.156 100.748L301.374 107.73C301.419 107.988 301.389 108.253 301.288 108.495C301.187 108.737 301.019 108.947 300.803 109.1C300.586 109.254 300.33 109.345 300.064 109.364C299.797 109.383 299.53 109.328 299.294 109.206L292.883 105.906C292.677 105.799 292.448 105.743 292.215 105.743C291.983 105.743 291.754 105.799 291.548 105.906L285.137 109.189C284.901 109.31 284.634 109.363 284.367 109.344C284.101 109.324 283.846 109.232 283.63 109.078C283.414 108.924 283.247 108.714 283.147 108.472C283.046 108.229 283.017 107.965 283.063 107.707L284.292 100.742C284.332 100.518 284.316 100.288 284.245 100.072C284.173 99.8551 284.05 99.6588 283.884 99.4992L278.709 94.5573C278.517 94.3746 278.381 94.1427 278.317 93.888C278.252 93.6334 278.262 93.3662 278.345 93.1169C278.428 92.8675 278.582 92.646 278.787 92.4774C278.992 92.3089 279.242 92.2001 279.508 92.1633L286.664 91.1544C286.894 91.1233 287.113 91.0374 287.301 90.9042C287.489 90.771 287.641 90.5946 287.743 90.3906L290.954 84.0522C291.072 83.8179 291.255 83.6206 291.482 83.4827C291.71 83.3448 291.972 83.2717 292.239 83.2717C292.506 83.2717 292.768 83.3448 292.995 83.4827C293.222 83.6206 293.405 83.8179 293.524 84.0522L296.712 90.402C296.818 90.6055 296.973 90.7804 297.164 90.9116C297.355 91.0428 297.576 91.1262 297.807 91.1544Z" fill="#FF725F"/>
<path d="M395.577 118.047C395.577 118.047 388.63 145.88 357.526 139.502C357.526 139.502 366.542 111.315 395.577 118.047Z" fill="#263238"/>
<path d="M380.564 160.198C380.564 160.198 366.286 181.02 342.683 166.622C342.683 166.622 358.768 146.119 380.564 160.198Z" fill="#263238"/>
<path d="M357.8 191.964C357.8 191.964 336.971 209.287 317.005 187.815C317.04 187.815 339.611 171.33 357.8 191.964Z" fill="#263238"/>
<path d="M335.742 124.619C335.742 124.619 358.844 135.477 347.631 160.364C347.631 160.364 324.616 147.71 335.742 124.619Z" fill="#263238"/>
<path d="M330.729 154.624C330.729 154.624 342.251 169.837 325.076 182.907C325.076 182.907 314.289 166.497 330.729 154.624Z" fill="#263238"/>
<path d="M384.166 85.5C384.166 85.5 386.818 108.061 361.903 111.674C361.915 111.674 360.685 88.293 384.166 85.5Z" fill="#263238"/>
<path d="M348.435 62.7C348.435 62.7 368.582 70.9307 359.834 94.05C359.834 94.0044 339.64 84.1434 348.435 62.7Z" fill="#263238"/>
<path d="M336.272 95.6345C336.272 95.6345 362.952 98.6099 360.604 127.013C360.604 127.013 333.358 122.236 336.272 95.6345Z" fill="#263238"/>
<path d="M298.303 194.775C298.303 194.775 298.413 194.735 298.641 194.672L299.637 194.415C300.517 194.187 301.817 193.885 303.46 193.361C308.104 191.955 312.594 190.103 316.865 187.832C323.204 184.444 329.056 180.248 334.267 175.355C337.349 172.476 340.221 169.39 342.863 166.121L344.868 163.487L345.876 162.159C346.203 161.703 346.5 161.23 346.82 160.763L348.703 157.913L350.451 154.937C350.737 154.436 351.034 153.94 351.314 153.444C351.594 152.948 351.832 152.418 352.089 151.911C352.602 150.89 353.12 149.887 353.616 148.872C354.111 147.858 354.502 146.82 354.945 145.806C355.16 145.299 355.393 144.797 355.592 144.29L356.174 142.751L357.287 139.718C357.596 138.698 357.87 137.683 358.202 136.686C358.354 136.184 358.506 135.688 358.651 135.192C358.797 134.697 358.902 134.195 359.03 133.699L359.735 130.758C361.258 123.85 361.925 116.788 361.723 109.725C361.563 104.965 361.021 100.225 360.102 95.5489C359.735 93.8959 359.415 92.6248 359.222 91.7584C359.123 91.3309 359.047 91.006 358.995 90.7723C358.943 90.5386 358.931 90.436 358.931 90.436C358.931 90.436 358.966 90.5443 359.024 90.7666L359.281 91.747C359.496 92.6077 359.863 93.8788 360.219 95.5261C362.65 107.176 362.579 119.193 360.009 130.815C359.776 131.784 359.541 132.768 359.304 133.767C359.182 134.263 359.082 134.771 358.931 135.267C358.779 135.762 358.634 136.264 358.482 136.766L357.567 139.804L356.454 142.848C356.268 143.361 356.081 143.874 355.871 144.392C355.661 144.911 355.44 145.407 355.219 145.92L353.89 148.998C353.394 150.012 352.87 151.021 352.363 152.042L351.582 153.581C351.296 154.082 350.999 154.578 350.714 155.08L348.965 158.067L347.071 160.917C346.751 161.384 346.453 161.857 346.121 162.313L345.107 163.653L343.096 166.292C340.454 169.575 337.577 172.672 334.488 175.56C329.255 180.459 323.375 184.652 317.005 188.026C312.705 190.285 308.183 192.113 303.507 193.481C301.858 193.988 300.546 194.273 299.661 194.478L298.658 194.712L298.303 194.775Z" fill="#263238"/>
<path d="M328.229 166.89C328.26 167.102 328.26 167.317 328.229 167.529C328.194 167.933 328.13 168.526 328.043 169.239C327.862 170.692 327.553 172.693 327.116 174.887C326.679 177.082 326.189 179.054 325.799 180.462C325.601 181.169 325.438 181.739 325.309 182.132C325.259 182.34 325.183 182.541 325.082 182.73C325.097 182.518 325.134 182.308 325.193 182.103C325.303 181.642 325.438 181.077 325.589 180.393C325.927 178.974 326.382 177.002 326.819 174.813C327.256 172.624 327.594 170.635 327.827 169.193C327.938 168.52 328.037 167.95 328.113 167.483C328.131 167.282 328.17 167.083 328.229 166.89Z" fill="#455A64"/>
<path d="M333.906 189.485C333.687 189.494 333.467 189.475 333.253 189.428L331.505 189.171C330.013 188.955 327.944 188.67 325.677 188.408C323.41 188.146 321.312 187.957 319.808 187.838L318.025 187.684C317.804 187.676 317.585 187.646 317.372 187.593C317.59 187.565 317.812 187.565 318.03 187.593C318.456 187.593 319.068 187.593 319.82 187.65C321.335 187.724 323.415 187.878 325.712 188.14C328.008 188.402 330.071 188.71 331.54 188.995C332.286 189.132 332.88 189.251 333.288 189.342C333.499 189.365 333.707 189.412 333.906 189.485Z" fill="#455A64"/>
<path d="M361.985 161.88C361.735 161.965 361.477 162.027 361.215 162.062L359.106 162.467C357.322 162.815 354.869 163.316 352.176 163.949C349.484 164.582 347.065 165.243 345.317 165.733L343.248 166.303C343 166.388 342.744 166.449 342.484 166.485C342.714 166.359 342.959 166.259 343.213 166.189C343.691 166.018 344.378 165.79 345.258 165.516C347.007 164.975 349.402 164.285 352.1 163.647C354.799 163.008 357.27 162.535 359.094 162.245C359.992 162.096 360.72 161.994 361.227 161.931C361.477 161.889 361.731 161.872 361.985 161.88Z" fill="#455A64"/>
<path d="M341.593 140.533C341.773 140.748 341.931 140.979 342.065 141.223C342.362 141.679 342.753 142.363 343.201 143.201C345.539 147.662 346.968 152.525 347.409 157.519C347.491 158.471 347.526 159.229 347.526 159.799C347.553 160.076 347.553 160.355 347.526 160.632C347.468 160.36 347.436 160.083 347.432 159.805C347.403 159.275 347.333 158.506 347.223 157.554C346.671 152.605 345.256 147.785 343.038 143.304C342.613 142.443 342.257 141.759 341.995 141.286C341.836 141.048 341.702 140.796 341.593 140.533Z" fill="#455A64"/>
<path d="M372.539 127.554C372.35 127.715 372.145 127.856 371.927 127.976L370.214 129.065C368.78 130 366.834 131.345 364.794 132.952C362.754 134.56 361.006 136.156 359.776 137.336L358.331 138.749C358.166 138.932 357.982 139.099 357.783 139.245C357.917 139.041 358.071 138.85 358.243 138.675C358.558 138.316 359.03 137.809 359.624 137.199C361.187 135.609 362.849 134.117 364.601 132.73C366.351 131.343 368.187 130.061 370.097 128.894C370.837 128.449 371.438 128.107 371.846 127.879C372.062 127.744 372.295 127.635 372.539 127.554Z" fill="#455A64"/>
<path d="M343.405 106.949C343.485 106.996 343.559 107.051 343.627 107.114L344.209 107.627C344.716 108.078 345.439 108.767 346.307 109.582C348.056 111.258 350.387 113.646 352.812 116.422C355.236 119.198 357.276 121.837 358.692 123.787C359.397 124.761 359.957 125.559 360.33 126.118L360.755 126.768C360.848 126.922 360.895 127.002 360.883 127.007C360.814 126.947 360.753 126.878 360.703 126.802L360.23 126.186L358.517 123.906C357.06 121.991 355.02 119.381 352.578 116.61C350.136 113.84 347.858 111.429 346.168 109.719L344.128 107.73L343.58 107.16C343.458 107.029 343.399 106.96 343.405 106.949Z" fill="#455A64"/>
<path d="M375.541 92.8301C375.367 93.0814 375.172 93.3179 374.958 93.5369L373.338 95.4065C371.98 96.9911 370.155 99.2198 368.279 101.785C366.402 104.35 364.84 106.761 363.745 108.534L362.498 110.631C362.356 110.898 362.19 111.151 362.002 111.389C362.111 111.108 362.241 110.836 362.393 110.574C362.661 110.061 363.075 109.326 363.599 108.425C364.648 106.624 366.192 104.19 368.075 101.614C369.957 99.0374 371.816 96.8201 373.215 95.2697C373.915 94.4888 374.497 93.8732 374.911 93.4571C375.103 93.2312 375.313 93.0214 375.541 92.8301Z" fill="#455A64"/>
<path d="M351.425 71.4094C351.584 71.6772 351.724 71.9553 351.844 72.2416C352.095 72.7774 352.427 73.564 352.87 74.5216C353.715 76.471 354.834 79.1956 355.982 82.2337C357.13 85.2718 358.092 88.0477 358.75 90.0712C359.082 91.0801 359.333 91.9009 359.508 92.4709C359.61 92.7627 359.688 93.062 359.741 93.3658C359.598 93.0901 359.481 92.802 359.391 92.5051L358.546 90.1339C357.841 88.1332 356.845 85.3687 355.696 82.3363C354.548 79.3039 353.464 76.5736 352.672 74.6014C352.287 73.6495 351.972 72.8914 351.733 72.2587C351.602 71.9865 351.498 71.702 351.425 71.4094Z" fill="#455A64"/>
<path d="M46.6226 111.851C46.6226 111.851 53.1907 138.151 82.581 132.126C82.5635 132.126 74.0431 105.49 46.6226 111.851Z" fill="#263238"/>
<path d="M60.8079 151.682C60.8079 151.682 74.2996 171.359 96.5915 157.753C96.5915 157.753 81.3922 138.379 60.8079 151.682Z" fill="#263238"/>
<path d="M82.3013 181.699C82.3013 181.699 101.988 198.075 120.842 177.783C120.842 177.783 99.4937 162.199 82.3013 181.699Z" fill="#263238"/>
<path d="M103.154 118.064C103.154 118.064 81.3221 128.324 91.9173 151.836C91.9115 151.836 113.685 139.884 103.154 118.064Z" fill="#263238"/>
<path d="M107.886 146.416C107.886 146.416 96.9994 160.791 113.224 173.143C113.224 173.143 123.423 157.639 107.886 146.416Z" fill="#263238"/>
<path d="M57.3926 81.0938C57.3926 81.0938 54.8866 102.412 78.4315 105.826C78.4315 105.826 79.5738 83.7329 57.3926 81.0938Z" fill="#263238"/>
<path d="M91.1598 59.5193C91.1598 59.5193 72.114 67.2998 80.3839 89.1593C80.3839 89.1308 99.4646 79.7999 91.1598 59.5193Z" fill="#263238"/>
<path d="M102.652 90.6697C102.652 90.6697 77.4349 93.4855 79.6553 120.31C79.6553 120.321 105.409 115.812 102.652 90.6697Z" fill="#263238"/>
<path d="M144.06 186.179L143.716 186.116L142.72 185.9C141.846 185.7 140.552 185.432 138.914 184.959C134.274 183.695 129.756 182.038 125.411 180.006C122.402 178.615 119.483 177.047 116.669 175.309C113.43 173.33 110.34 171.128 107.42 168.72C104.184 166.068 101.162 163.175 98.3807 160.067L96.2593 157.565C95.5717 156.704 94.9189 155.809 94.2371 154.926C93.899 154.481 93.561 154.031 93.2172 153.586L92.2789 152.19C91.6611 151.244 91.0025 150.309 90.4023 149.34C89.2367 147.356 88.0711 145.43 87.1095 143.412C86.0604 141.445 85.2329 139.422 84.3703 137.438C78.2885 122.65 76.761 106.445 79.976 90.8179C80.3257 89.1877 80.6812 87.9394 80.8852 87.0844C80.9959 86.6683 81.0775 86.3434 81.1358 86.1154C81.1941 85.8874 81.2349 85.7905 81.2349 85.7905C81.2349 85.7905 81.2349 85.9045 81.165 86.1268C81.095 86.3491 81.0426 86.6968 80.9435 87.0958C80.757 87.9565 80.419 89.2105 80.0868 90.8407C79.1975 95.4595 78.6927 100.141 78.5773 104.84C78.4097 115.954 80.4729 126.993 84.6501 137.33C85.5068 139.296 86.3343 141.32 87.3834 143.281C88.3333 145.287 89.5222 147.208 90.6587 149.186C91.2415 150.155 91.9117 151.084 92.5295 152.036L93.4678 153.438L94.4818 154.772C95.1579 155.655 95.8106 156.55 96.4925 157.405L98.608 159.896C103.893 165.802 110.021 170.931 116.803 175.127C123.679 179.378 131.135 182.658 138.949 184.868C140.575 185.358 141.863 185.643 142.737 185.86L143.722 186.111L144.06 186.179Z" fill="#263238"/>
<path d="M110.246 158.004C110.31 158.189 110.355 158.38 110.38 158.574C110.456 159.019 110.544 159.554 110.649 160.187C110.87 161.549 111.196 163.43 111.604 165.499C112.012 167.569 112.444 169.427 112.77 170.772C112.916 171.393 113.038 171.912 113.143 172.368C113.201 172.553 113.234 172.745 113.242 172.938C113.148 172.757 113.075 172.565 113.026 172.368C112.91 172.003 112.747 171.462 112.56 170.795C112.187 169.461 111.733 167.603 111.313 165.528C110.893 163.453 110.614 161.538 110.445 160.187C110.357 159.503 110.299 158.944 110.27 158.557C110.24 158.374 110.232 158.188 110.246 158.004Z" fill="#455A64"/>
<path d="M104.902 179.356C105.09 179.281 105.285 179.226 105.485 179.191C105.87 179.105 106.441 178.991 107.14 178.86C108.545 178.604 110.497 178.29 112.665 178.051C114.833 177.811 116.803 177.658 118.231 177.595C118.947 177.561 119.524 177.538 119.921 177.538C120.128 177.511 120.337 177.511 120.544 177.538C120.345 177.591 120.139 177.619 119.932 177.623L118.248 177.772C116.826 177.891 114.862 178.074 112.7 178.342C110.538 178.609 108.62 178.86 107.175 179.065L105.502 179.299C105.306 179.343 105.104 179.363 104.902 179.356Z" fill="#455A64"/>
<path d="M78.3499 153.262C78.6002 153.253 78.8507 153.274 79.0958 153.324C79.5737 153.381 80.2614 153.478 81.1065 153.615C82.8082 153.889 85.1394 154.333 87.6921 154.937C90.2447 155.542 92.5234 156.191 94.1611 156.71C94.977 156.967 95.6356 157.189 96.0901 157.349C96.3287 157.418 96.5591 157.512 96.7778 157.628C96.5289 157.599 96.2844 157.542 96.0493 157.457L94.097 156.887C92.4477 156.425 90.1631 155.81 87.6163 155.205C85.0695 154.601 82.7558 154.128 81.0715 153.797L79.0783 153.416C78.8312 153.386 78.5873 153.335 78.3499 153.262Z" fill="#455A64"/>
<path d="M97.6231 133.101C97.5288 133.346 97.4118 133.583 97.2734 133.807C97.0286 134.252 96.6906 134.902 96.2885 135.717C95.2467 137.829 94.3888 140.024 93.7242 142.278C93.0665 144.533 92.6006 146.838 92.3313 149.169C92.2322 150.064 92.1623 150.793 92.1332 151.295C92.1292 151.558 92.098 151.819 92.0399 152.076C92.0066 151.815 91.9969 151.552 92.0108 151.289C92.0108 150.782 92.0399 150.052 92.1157 149.152C92.3258 146.796 92.7669 144.465 93.4328 142.192C94.0999 139.922 94.9919 137.721 96.0962 135.62C96.5216 134.816 96.8888 134.178 97.1685 133.75C97.2947 133.518 97.4472 133.3 97.6231 133.101Z" fill="#455A64"/>
<path d="M68.3784 120.84C68.6001 120.919 68.8129 121.021 69.0137 121.142C69.4158 121.353 69.9869 121.678 70.6863 122.1C72.4931 123.201 74.2292 124.41 75.8848 125.719C77.5383 127.031 79.107 128.441 80.5822 129.943C81.165 130.513 81.5904 130.997 81.8876 131.339C82.0524 131.514 82.1989 131.705 82.3247 131.909C82.1316 131.772 81.9556 131.613 81.8002 131.436L80.4248 130.085C79.2592 128.945 77.6157 127.475 75.6867 125.941C73.7576 124.408 71.916 123.148 70.5639 122.271L68.9496 121.233C68.744 121.125 68.5523 120.992 68.3784 120.84Z" fill="#455A64"/>
<path d="M95.9095 101.363C95.7008 101.62 95.4729 101.862 95.2276 102.087L93.3102 103.996C91.7075 105.61 89.5279 107.89 87.2433 110.506C84.9588 113.122 83.0122 115.59 81.631 117.403L80.0108 119.552C79.8251 119.823 79.6186 120.08 79.3931 120.321C79.5437 120.029 79.7172 119.749 79.9118 119.483C80.2614 118.953 80.7918 118.195 81.4562 117.277C82.7966 115.431 84.7256 112.94 87.016 110.312C89.3064 107.684 91.4977 105.45 93.1587 103.848C93.9863 103.056 94.6623 102.423 95.146 102.001C95.3844 101.771 95.6396 101.558 95.9095 101.363Z" fill="#455A64"/>
<path d="M65.54 88.0193C65.7661 88.1913 65.9767 88.382 66.1695 88.5893C66.5599 88.9826 67.1078 89.564 67.7663 90.2993C69.4908 92.2269 71.1131 94.2397 72.6268 96.3299C74.3752 98.7638 75.8672 101.067 76.8579 102.765C77.3533 103.614 77.7379 104.31 78.0235 104.8C78.1708 105.046 78.2938 105.306 78.3907 105.575C78.214 105.349 78.0562 105.108 77.9186 104.857L76.7006 102.873C75.6632 101.203 74.1829 98.9291 72.4112 96.5009C70.6395 94.0727 68.9144 91.9694 67.6323 90.4703C67.0495 89.7521 66.5075 89.1593 66.1112 88.7033C65.8967 88.4956 65.7052 88.2664 65.54 88.0193Z" fill="#455A64"/>
<path d="M88.3391 67.7786C88.2656 68.0615 88.1681 68.338 88.0477 68.6051C87.8204 69.1751 87.5232 69.9218 87.1619 70.8167C86.4159 72.6806 85.4135 75.2627 84.3062 78.1298C83.1989 80.9969 82.278 83.6075 81.5903 85.4999C81.264 86.4062 81.0075 87.1586 80.7919 87.74C80.7085 88.0197 80.5972 88.2908 80.4597 88.5494C80.5074 88.2628 80.5796 87.9806 80.6753 87.7058C80.8327 87.1358 81.0775 86.3891 81.3864 85.4258C82.01 83.5163 82.9133 80.8658 84.0031 78.0158C85.0929 75.1658 86.1478 72.578 86.9462 70.7312C87.3484 69.8078 87.6806 69.0668 87.9195 68.5538C88.0342 68.2831 88.1747 68.0235 88.3391 67.7786Z" fill="#455A64"/>
<path d="M144.031 94.6201C148.28 95.1616 148.909 99.4195 150.482 102.993C152.056 106.567 155.069 109.748 157.389 112.946C158.612 114.656 160.303 116.155 160.722 118.161C161.183 120.259 160.204 122.43 159.743 124.568C159.283 126.705 159.609 129.322 161.707 130.268C161.472 130.537 161.175 130.749 160.841 130.886C160.507 131.024 160.145 131.083 159.784 131.06C159.784 132.046 158.811 132.896 157.75 133.181C156.681 133.389 155.579 133.377 154.515 133.146C154.801 133.802 154.195 134.594 153.443 134.856C152.68 135.061 151.875 135.061 151.112 134.856C150.355 134.646 149.561 134.59 148.781 134.691C147.032 135.062 146.012 136.971 144.264 137.211C141.863 137.553 140.138 134.549 137.766 135.073C136.653 135.318 135.913 136.27 134.998 136.92C134.083 137.57 132.538 137.404 132.084 136.47C130.813 138.037 128.849 139.559 126.78 139.975C126.928 139.632 126.969 139.255 126.897 138.889C126.826 138.524 126.645 138.188 126.378 137.923C125.244 138.829 123.881 139.42 122.433 139.633C122.868 139.242 123.211 138.763 123.438 138.23C123.666 137.697 123.772 137.121 123.75 136.544C123.262 136.918 122.694 137.179 122.088 137.306C121.482 137.433 120.855 137.424 120.253 137.279C122.386 136.088 122.584 133.317 121.838 131.237C121.092 129.156 119.635 127.293 119.355 125.098C119.047 122.71 121.914 119.689 121.354 117.346C120.492 113.732 120.556 111.532 120.707 108.158C120.807 105.952 121.803 103.991 122.794 101.933C123.954 99.3844 125.941 97.2808 128.447 95.9482C130.702 94.7056 133.954 93.5656 136.536 93.5086C141.14 93.4117 143.011 93.2692 146.654 95.6518" fill="#263238"/>
<path d="M129.846 124.044C128.334 121.172 127.08 118.178 126.098 115.095C125.114 111.996 124.934 108.708 125.574 105.524C125.684 105.051 126.739 101.808 127.241 101.791C127.596 101.791 127.077 104.738 127.299 105.017C129.391 107.65 130.329 111.03 130.51 114.359C130.657 117.603 130.434 120.853 129.846 124.049" fill="#263238"/>
<path d="M149.975 151.347C144.888 151.917 132.649 146.684 131.967 141.725L127.841 111.88C126.477 103.9 130.085 96.4897 138.285 95.3497L139.048 95.287C142.755 94.9956 146.439 96.0809 149.365 98.3267C152.291 100.572 154.244 103.814 154.836 107.405C156.002 114.331 157.167 121.992 157.418 125.736C157.954 133.483 150.139 135.307 150.139 135.307C150.139 135.307 150.337 137.097 150.622 139.359C151.269 144.444 150.442 150.018 149.975 151.329V151.347Z" fill="#FFBE9D"/>
<path d="M150.139 135.307C146.481 135.584 142.818 134.831 139.584 133.135C139.584 133.135 142.545 138.761 150.383 137.444L150.139 135.307Z" fill="#EB996E"/>
<path d="M151.887 114.143C151.913 114.43 151.824 114.716 151.638 114.939C151.452 115.163 151.183 115.307 150.891 115.34C150.748 115.363 150.601 115.358 150.46 115.325C150.319 115.291 150.186 115.231 150.07 115.146C149.953 115.061 149.856 114.955 149.782 114.832C149.709 114.71 149.662 114.574 149.643 114.433C149.617 114.146 149.707 113.86 149.893 113.637C150.079 113.413 150.347 113.269 150.64 113.236C150.783 113.212 150.93 113.217 151.071 113.25C151.213 113.282 151.346 113.343 151.462 113.428C151.579 113.513 151.677 113.62 151.75 113.743C151.823 113.865 151.87 114.002 151.887 114.143Z" fill="#263238"/>
<path d="M153.432 110.951C153.303 111.105 152.4 110.552 151.182 110.649C149.964 110.746 149.125 111.412 148.979 111.276C148.833 111.139 149.031 110.945 149.399 110.643C149.894 110.242 150.506 110.003 151.147 109.959C151.779 109.906 152.412 110.052 152.954 110.375C153.35 110.626 153.496 110.877 153.432 110.951Z" fill="#263238"/>
<path d="M140.453 115.015C140.472 115.301 140.38 115.584 140.195 115.807C140.01 116.03 139.746 116.176 139.456 116.217C139.313 116.24 139.167 116.234 139.026 116.201C138.885 116.167 138.753 116.106 138.637 116.022C138.52 115.937 138.423 115.831 138.349 115.709C138.276 115.587 138.228 115.452 138.209 115.311C138.19 115.025 138.282 114.742 138.466 114.519C138.651 114.296 138.915 114.149 139.205 114.108C139.348 114.087 139.494 114.093 139.635 114.127C139.775 114.161 139.907 114.222 140.023 114.306C140.139 114.39 140.237 114.496 140.311 114.618C140.384 114.74 140.433 114.875 140.453 115.015Z" fill="#263238"/>
<path d="M141.531 112.159C141.403 112.313 140.493 111.766 139.281 111.863C138.069 111.959 137.218 112.626 137.078 112.49C136.938 112.353 137.125 112.159 137.492 111.851C137.988 111.451 138.599 111.214 139.24 111.173C139.874 111.119 140.51 111.265 141.053 111.589C141.449 111.84 141.618 112.091 141.531 112.159Z" fill="#263238"/>
<path d="M146.648 120.96C147.272 120.711 147.926 120.543 148.594 120.458C148.903 120.401 149.177 120.316 149.224 120.105C149.226 119.789 149.129 119.48 148.944 119.221L147.837 116.981C146.292 113.789 145.144 111.15 145.278 111.093C145.412 111.036 146.77 113.573 148.315 116.765L149.387 119.045C149.612 119.396 149.703 119.814 149.643 120.225C149.607 120.335 149.546 120.436 149.464 120.52C149.383 120.604 149.282 120.669 149.171 120.709C149.002 120.767 148.826 120.805 148.647 120.823C147.989 120.951 147.317 120.997 146.648 120.96Z" fill="#263238"/>
<path d="M141.036 107.73C140.896 108.044 139.689 107.816 138.25 107.901C136.81 107.987 135.627 108.295 135.458 107.992C135.382 107.85 135.604 107.554 136.088 107.269C136.735 106.924 137.453 106.728 138.189 106.693C138.924 106.659 139.658 106.787 140.336 107.069C140.872 107.303 141.123 107.571 141.036 107.73Z" fill="#263238"/>
<path d="M152.919 108.192C152.691 108.483 151.677 108.294 150.482 108.391C149.288 108.488 148.303 108.779 148.046 108.517C147.93 108.391 148.046 108.106 148.478 107.81C149.056 107.445 149.72 107.229 150.406 107.182C151.093 107.135 151.781 107.259 152.406 107.542C152.849 107.781 153.018 108.049 152.919 108.192Z" fill="#263238"/>
<path d="M128.96 117.563C128.82 117.517 123.394 116.423 124 121.695C124.606 126.968 129.898 125.292 129.892 125.115C129.887 124.938 128.96 117.563 128.96 117.563Z" fill="#FFBE9D"/>
<path d="M128.016 123.32C128.016 123.32 127.928 123.394 127.777 123.485C127.564 123.6 127.314 123.633 127.077 123.576C126.495 123.434 125.912 122.601 125.76 121.649C125.697 121.198 125.737 120.739 125.877 120.304C125.907 120.134 125.98 119.974 126.089 119.838C126.198 119.702 126.339 119.594 126.5 119.523C126.605 119.484 126.72 119.481 126.826 119.515C126.933 119.55 127.023 119.619 127.083 119.712C127.176 119.854 127.153 119.962 127.182 119.968C127.211 119.974 127.287 119.865 127.217 119.654C127.174 119.526 127.085 119.417 126.967 119.347C126.806 119.252 126.613 119.224 126.431 119.267C126.214 119.336 126.02 119.457 125.865 119.62C125.71 119.782 125.6 119.98 125.545 120.196C125.369 120.678 125.315 121.194 125.387 121.701C125.545 122.761 126.215 123.696 127.019 123.833C127.169 123.859 127.323 123.852 127.469 123.811C127.616 123.771 127.751 123.698 127.864 123.599C128.016 123.451 128.033 123.325 128.016 123.32Z" fill="#EB996E"/>
<path d="M150.261 99.0775C151.077 98.5075 148.116 96.0451 145.855 95.3497C142.434 94.2952 137.375 93.9988 134.485 95.1844C130.988 96.6094 128.243 98.7127 126.833 102.133C125.496 105.599 125.128 109.351 125.766 113.003C125.86 114.131 126.263 115.214 126.932 116.138C127.829 117.215 129.368 117.779 129.502 119.392C129.54 119.984 129.811 120.538 130.26 120.937C131.379 121.843 132.463 120.738 132.9 119.706C133.826 117.5 133.651 115.015 133.482 112.638C133.442 110.938 133.115 109.257 132.515 107.662C132.142 106.812 131.617 106.032 131.291 105.165C131.103 104.742 131.01 104.284 131.02 103.822C131.03 103.361 131.143 102.907 131.349 102.492C131.454 102.327 131.575 102.172 131.711 102.03C132.382 101.298 133.241 100.754 134.199 100.454C135.156 100.153 136.178 100.107 137.16 100.32C140.324 101.01 145.709 101.962 146.939 100.793C148.688 99.0832 149.055 98.1142 149.055 98.1142L150.261 99.0775Z" fill="#263238"/>
<path d="M143.396 121.98C143.326 121.98 143.314 122.294 143.477 122.738C143.702 123.323 144.11 123.824 144.643 124.169C145.155 124.502 145.726 124.74 146.327 124.87C146.776 124.973 147.067 124.984 147.091 124.916C147.114 124.847 146.869 124.693 146.461 124.5C145.944 124.274 145.445 124.009 144.969 123.707C143.885 123.029 143.565 121.935 143.396 121.98Z" fill="#263238"/>
<path d="M129.135 118.252C129.181 118.344 129.221 118.441 129.267 118.549C129.267 118.56 129.215 118.441 129.135 118.252Z" fill="#FF725F"/>
<path d="M127.287 117.42C127.287 117.42 128.191 116.28 129.135 118.229C128.01 115.642 120.533 96.9285 141.035 94.4604C141.035 94.4604 133.628 93.1836 129.164 96.786C129.164 96.8088 120.084 102.116 127.287 117.42Z" fill="#455A64"/>
<path d="M166.492 211.915L118.837 212.547C118.837 212.547 105.508 207.093 101.848 206.944C98.1883 206.796 90.915 207.252 87.5523 212.547C84.0555 218.019 83.5951 227.67 94.3011 234.681C104.733 241.521 152.423 247.825 158.991 247.221L171.009 231.42C171.009 231.42 171.137 218.453 171.009 217.831C170.88 217.21 168.864 211.658 168.864 211.658L166.492 211.915Z" fill="#263238"/>
<path d="M137.964 233.803L113.271 242.769L124.525 272.876C127.398 271.645 127.48 253.964 127.48 253.964L143.541 248.834L137.964 233.803Z" fill="#FF725F"/>
<g opacity="0.6">
<path d="M125.335 244.177C125.137 243.92 124.849 243.743 124.526 243.681C124.204 243.619 123.869 243.676 123.587 243.84C123.312 244.024 123.121 244.306 123.055 244.625C122.988 244.944 123.052 245.276 123.231 245.55C123.442 245.823 123.749 246.01 124.092 246.074C124.436 246.139 124.791 246.076 125.09 245.898C125.351 245.677 125.514 245.366 125.545 245.031C125.577 244.695 125.474 244.36 125.259 244.097" fill="white"/>
</g>
<path d="M113.271 242.769L115.765 241.868L125.673 271.126C125.673 271.126 125.58 272.682 124.554 272.876L113.271 242.769Z" fill="#263238"/>
<path d="M127.818 254.397C127.666 254.442 127.328 253.73 126.57 253.183C125.813 252.635 125.044 252.47 125.049 252.316C125.055 252.162 126.011 252.065 126.908 252.749C127.806 253.433 127.969 254.374 127.818 254.397Z" fill="#263238"/>
<path d="M127.666 258.028C127.532 258.113 127.037 257.572 126.215 257.298C125.393 257.025 124.671 257.122 124.618 256.973C124.566 256.825 125.387 256.403 126.401 256.785C127.416 257.167 127.806 257.977 127.666 258.028Z" fill="#263238"/>
<path d="M124.472 261.203C124.391 261.083 125.055 260.633 126.028 260.69C127.002 260.747 127.579 261.345 127.474 261.453C127.369 261.562 126.774 261.294 125.982 261.237C125.189 261.18 124.542 261.345 124.472 261.203Z" fill="#263238"/>
<path d="M131.349 252.829C131.186 252.829 131.145 252.071 130.767 251.262C130.388 250.452 129.887 249.899 129.986 249.774C130.085 249.649 130.854 250.082 131.274 251.045C131.693 252.008 131.495 252.863 131.349 252.829Z" fill="#263238"/>
<path d="M134.735 250.8C134.671 250.8 134.362 250.276 134.153 249.29C134.05 248.71 134.019 248.121 134.059 247.534C134.084 247.185 134.133 246.839 134.205 246.497C134.24 246.298 134.304 246.106 134.397 245.927C134.468 245.792 134.582 245.683 134.723 245.619C134.863 245.555 135.022 245.539 135.173 245.573C135.304 245.609 135.426 245.675 135.527 245.765C135.628 245.855 135.707 245.967 135.755 246.092C135.826 246.275 135.871 246.467 135.889 246.662C136.002 247.607 135.868 248.564 135.499 249.444C135.097 250.378 134.625 250.817 134.578 250.777C134.532 250.737 134.846 250.207 135.126 249.312C135.288 248.786 135.38 248.242 135.4 247.694C135.408 247.372 135.39 247.05 135.347 246.73C135.312 246.383 135.213 246.109 135.039 246.081C134.974 246.081 134.951 246.081 134.875 246.172C134.811 246.31 134.764 246.455 134.735 246.605C134.663 246.921 134.608 247.241 134.572 247.563C134.521 248.116 134.521 248.673 134.572 249.227C134.663 249.747 134.717 250.273 134.735 250.8Z" fill="#263238"/>
<path d="M134.444 250.692C134.403 250.652 134.835 250.167 135.784 249.763C136.341 249.536 136.931 249.401 137.533 249.364C137.893 249.347 138.254 249.364 138.611 249.415C138.845 249.423 139.072 249.49 139.272 249.61C139.471 249.73 139.635 249.899 139.747 250.099C139.797 250.233 139.805 250.379 139.771 250.518C139.737 250.656 139.662 250.782 139.555 250.88C139.406 251.024 139.235 251.145 139.048 251.239C138.723 251.413 138.374 251.538 138.011 251.609C137.402 251.735 136.771 251.709 136.175 251.535C135.161 251.233 134.753 250.686 134.8 250.652C135.277 250.854 135.768 251.025 136.268 251.165C136.809 251.265 137.366 251.25 137.9 251.119C138.208 251.046 138.505 250.931 138.78 250.777C139.089 250.612 139.305 250.395 139.229 250.287C139.153 250.179 138.832 249.974 138.524 249.945C138.202 249.891 137.877 249.864 137.55 249.865C136.991 249.875 136.435 249.964 135.901 250.127C135.004 250.407 134.496 250.766 134.444 250.692Z" fill="#263238"/>
<path d="M158.333 230.081L182.227 240.911L168.59 270.055C165.822 268.613 167.162 250.977 167.162 250.977L151.561 244.644L158.333 230.081Z" fill="#FF725F"/>
<g opacity="0.6">
<path d="M170.088 241.395C170.305 241.161 170.602 241.012 170.924 240.975C171.245 240.939 171.569 241.017 171.836 241.196C172.089 241.4 172.252 241.691 172.292 242.009C172.332 242.327 172.246 242.648 172.052 242.906C171.82 243.161 171.5 243.323 171.154 243.361C170.807 243.399 170.459 243.31 170.175 243.111C169.935 242.868 169.801 242.543 169.801 242.205C169.801 241.866 169.935 241.542 170.175 241.298" fill="white"/>
</g>
<path d="M182.227 240.922L179.815 239.828L167.617 268.236C167.617 268.236 167.588 269.798 168.59 270.066L182.227 240.922Z" fill="#263238"/>
<path d="M166.789 251.37C166.941 251.427 167.337 250.743 168.135 250.23C168.934 249.717 169.715 249.66 169.721 249.483C169.726 249.307 168.782 249.164 167.832 249.774C166.882 250.384 166.643 251.37 166.789 251.37Z" fill="#263238"/>
<path d="M166.679 255.024C166.801 255.121 167.337 254.613 168.182 254.408C169.027 254.203 169.738 254.351 169.796 254.209C169.855 254.066 169.08 253.604 168.048 253.884C167.017 254.163 166.515 254.961 166.679 255.024Z" fill="#263238"/>
<path d="M169.593 258.438C169.686 258.318 169.051 257.8 168.083 257.805C167.116 257.811 166.486 258.341 166.579 258.455C166.673 258.569 167.29 258.347 168.089 258.353C168.887 258.358 169.499 258.569 169.593 258.438Z" fill="#263238"/>
<path d="M163.397 249.563C163.56 249.563 163.665 248.816 164.097 248.041C164.528 247.266 165.081 246.747 164.994 246.616C164.907 246.485 164.102 246.861 163.607 247.756C163.112 248.651 163.252 249.58 163.397 249.563Z" fill="#263238"/>
<path d="M160.186 247.283C160.25 247.312 160.6 246.793 160.862 245.824C161.014 245.254 161.094 244.669 161.101 244.08C161.102 243.731 161.081 243.383 161.037 243.037C161.021 242.831 160.972 242.629 160.891 242.438C160.831 242.299 160.725 242.183 160.59 242.108C160.455 242.034 160.299 242.006 160.145 242.028C160.011 242.054 159.885 242.111 159.777 242.193C159.668 242.275 159.581 242.38 159.522 242.501C159.436 242.682 159.377 242.874 159.347 243.071C159.277 243.416 159.239 243.767 159.236 244.12C159.235 244.713 159.327 245.304 159.51 245.87C159.631 246.406 159.913 246.894 160.32 247.272C160.402 247.226 160.099 246.702 159.895 245.767C159.776 245.23 159.727 244.68 159.749 244.131C159.767 243.809 159.81 243.489 159.877 243.174C159.941 242.832 160.064 242.564 160.239 242.546C160.308 242.546 160.332 242.546 160.39 242.655C160.446 242.796 160.481 242.943 160.495 243.094C160.545 243.417 160.576 243.742 160.588 244.068C160.603 244.623 160.566 245.179 160.477 245.727C160.347 246.239 160.249 246.759 160.186 247.283Z" fill="#263238"/>
<path d="M160.483 247.192C160.53 247.152 160.14 246.622 159.225 246.16C158.677 245.887 158.086 245.707 157.476 245.63C157.119 245.584 156.758 245.573 156.398 245.596C156.171 245.588 155.945 245.636 155.741 245.736C155.538 245.836 155.363 245.983 155.232 246.166C155.175 246.297 155.156 246.442 155.179 246.583C155.202 246.724 155.265 246.856 155.361 246.964C155.499 247.118 155.66 247.25 155.839 247.357C156.148 247.558 156.489 247.71 156.847 247.808C157.442 247.979 158.07 248.002 158.677 247.876C159.72 247.654 160.169 247.135 160.122 247.101C159.628 247.263 159.124 247.394 158.613 247.494C158.069 247.556 157.517 247.499 156.998 247.329C156.696 247.232 156.41 247.093 156.147 246.918C155.85 246.73 155.652 246.497 155.739 246.4C155.827 246.303 156.159 246.115 156.462 246.103C156.788 246.075 157.116 246.075 157.441 246.103C157.999 246.153 158.547 246.282 159.067 246.485C159.953 246.867 160.425 247.26 160.483 247.192Z" fill="#263238"/>
<path d="M168.864 211.664C168.864 211.664 189.442 204.146 197.019 205.12C201.256 205.69 207.876 208.825 208.383 214.138C208.89 219.45 207.561 226.547 200.224 230.007C192.887 233.467 163.671 246.292 156.73 248.247C149.789 250.202 132.468 254.847 132.468 254.847L125.912 236.55C125.912 236.55 161.795 224.398 163.689 223.036C165.583 221.673 170.379 219.826 170.379 219.826L168.864 211.664Z" fill="#263238"/>
<path d="M97.3257 214.16L97.4714 214.121L97.8852 214.001C98.2465 213.893 98.7827 213.739 99.4879 213.573C100.335 213.37 101.196 213.224 102.064 213.134C103.215 213.032 104.374 213.032 105.526 213.134C106.923 213.248 108.304 213.506 109.646 213.904C110.392 214.121 111.119 214.397 111.82 214.73L114.058 215.802C117.141 217.238 120.573 218.715 124.239 220.128C131.571 222.978 138.611 224.369 143.629 225.481C146.146 226.051 148.186 226.472 149.585 226.803L151.205 227.174L151.625 227.27H151.77L151.631 227.225L151.211 227.111C150.85 227.014 150.308 226.866 149.608 226.695C148.21 226.347 146.181 225.874 143.664 225.31C138.652 224.17 131.629 222.767 124.321 219.906C120.661 218.492 117.228 217.028 114.145 215.597L111.896 214.565C111.183 214.231 110.445 213.955 109.687 213.739C108.333 213.343 106.94 213.091 105.531 212.986C104.368 212.882 103.198 212.882 102.035 212.986C101.162 213.086 100.297 213.246 99.4471 213.465C98.7477 213.642 98.2115 213.807 97.856 213.927L97.4481 214.075C97.4041 214.099 97.363 214.127 97.3257 214.16Z" fill="#455A64"/>
<path d="M98.4041 211.504C98.4041 211.539 99.0335 211.43 100.042 211.322C101.352 211.186 102.671 211.15 103.987 211.214C105.306 211.282 106.618 211.451 107.909 211.721C108.9 211.926 109.506 212.097 109.512 212.063C109.383 211.994 109.246 211.941 109.104 211.903C108.722 211.773 108.333 211.663 107.939 211.573C105.348 210.94 102.656 210.804 100.013 211.174C99.5114 211.242 99.1034 211.316 98.847 211.385C98.6952 211.408 98.5465 211.448 98.4041 211.504Z" fill="#455A64"/>
<path d="M177.524 216.988C177.524 217.022 178.107 216.589 179.104 215.99C181.678 214.431 184.567 213.433 187.572 213.066C188.737 212.929 189.448 212.912 189.442 212.872C189.274 212.855 189.104 212.855 188.935 212.872C188.474 212.87 188.013 212.891 187.554 212.935C184.505 213.223 181.574 214.234 179.016 215.882C178.532 216.201 178.148 216.452 177.897 216.68C177.762 216.769 177.636 216.872 177.524 216.988Z" fill="#455A64"/>
<path d="M167.197 244.331L167.034 244.393L166.568 244.587C166.154 244.747 165.554 245.026 164.749 245.328C163.147 245.949 160.775 246.804 157.756 247.779C151.677 249.723 142.935 252.197 132.48 254.773L132.602 254.836C130.65 249.546 128.523 243.704 126.238 237.565L126.174 237.701L134.042 234.538L177.641 216.988C179.418 215.152 181.05 213.533 182.583 212.222C183.879 211.102 185.262 210.082 186.721 209.173C187.639 208.608 188.586 208.091 189.559 207.623L190.323 207.275L190.579 207.149L190.317 207.258L189.542 207.588C188.56 208.041 187.604 208.547 186.68 209.105C185.209 210.006 183.814 211.02 182.507 212.137C180.963 213.442 179.319 215.055 177.536 216.885C166.912 221.149 151.31 227.407 133.914 234.367L126.034 237.536L125.935 237.576L125.97 237.673C128.243 243.812 130.4 249.643 132.352 254.938L132.381 255.018H132.474C142.93 252.419 151.66 249.917 157.733 247.944C160.769 246.947 163.135 246.08 164.726 245.436C165.525 245.129 166.125 244.838 166.533 244.667L166.993 244.456L167.197 244.331Z" fill="#455A64"/>
<path d="M116.325 147.516C116.325 147.516 110.404 150.856 109.203 154.778C108.469 157.161 102.944 187.627 102.07 193.635C101.196 199.643 103.037 204.094 105.66 206.089C108.282 208.084 116.22 210.735 116.22 210.735L127.392 214.275L130.592 206.295L119.962 191.355L120.987 181.289L116.325 147.516Z" fill="#FF725F"/>
<path d="M127.975 142.255L131.67 139.587C131.67 139.587 136.484 144.404 142.015 143.834C147.545 143.264 150.821 139.126 150.821 139.126L167.314 142.415C168.421 142.631 170.438 143.315 172.367 146.011C174.523 149.021 184.728 162.359 184.728 162.359H191.873C192.839 162.359 193.787 162.617 194.615 163.106C195.443 163.594 196.119 164.293 196.57 165.129C197.788 167.409 199.251 170.442 199.111 171.701C198.866 173.827 199.286 179.681 196.372 181.494C195.445 182.064 192.129 183.808 189.565 183.694C185.771 183.517 181.365 181.585 178.83 179.852C176.679 178.382 171.685 173.303 169.761 171.302V171.331L168.526 213.648L125.3 212.462L116.325 147.516C116.325 147.516 127.538 142.255 127.975 142.255Z" fill="#FF725F"/>
<path d="M169.913 153.592C169.855 153.592 169.744 158.836 169.662 165.306C169.581 171.775 169.569 177.019 169.633 177.019C169.697 177.019 169.808 171.781 169.884 165.306C169.96 158.831 169.977 153.592 169.913 153.592Z" fill="#263238"/>
<path d="M111.091 187.798C111.091 187.798 111.458 187.855 112.111 187.975C113.032 188.155 113.93 188.436 114.786 188.813C116.058 189.37 117.256 190.076 118.353 190.916C119.701 191.952 120.958 193.096 122.112 194.336C123.347 195.641 124.478 196.935 125.539 198.081C126.467 199.108 127.45 200.088 128.482 201.016C129.18 201.634 129.92 202.206 130.697 202.726C130.97 202.92 131.198 203.046 131.343 203.137C131.416 203.186 131.495 203.229 131.577 203.262C131.515 203.199 131.444 203.146 131.367 203.103C131.227 202.994 131.011 202.858 130.749 202.658C129.994 202.107 129.272 201.513 128.587 200.88C127.718 200.087 126.739 199.078 125.673 197.927C124.606 196.776 123.499 195.476 122.258 194.165C121.094 192.921 119.822 191.776 118.458 190.745C117.343 189.904 116.126 189.203 114.833 188.659C113.962 188.292 113.048 188.032 112.111 187.884C111.857 187.841 111.6 187.812 111.342 187.798C111.259 187.789 111.175 187.789 111.091 187.798Z" fill="#263238"/>
<path d="M110.112 184.931C110.112 184.971 110.765 185.062 111.797 185.341C114.497 186.068 116.947 187.494 118.889 189.468C119.635 190.22 120.055 190.745 120.055 190.722C119.989 190.582 119.905 190.452 119.804 190.334C119.558 189.993 119.289 189.667 119 189.36C117.096 187.3 114.602 185.848 111.843 185.193C111.429 185.089 111.009 185.013 110.584 184.965C110.429 184.938 110.27 184.927 110.112 184.931Z" fill="#263238"/>
<g opacity="0.3">
<path d="M190.573 177.504C188.283 178.114 185.532 174.893 183.451 172.875C182.373 171.827 181.248 170.709 180.852 169.273C180.566 168.064 180.691 166.798 181.208 165.665C181.595 164.644 182.105 163.672 182.729 162.769C182.542 164.508 182.099 167.175 182.7 169.358C183.201 171.177 184.378 172.63 185.614 174.004C186.849 175.378 188.528 176.985 190.556 177.504" fill="black"/>
</g>
<path d="M180.805 175.663C180.852 175.663 180.584 174.922 180.368 173.708C180.248 172.997 180.178 172.279 180.159 171.559C180.149 170.677 180.212 169.797 180.345 168.925C180.492 168.056 180.71 167.2 180.998 166.366C181.243 165.685 181.537 165.022 181.878 164.382C182.461 163.294 182.944 162.672 182.909 162.672C182.774 162.797 182.655 162.936 182.554 163.088C182.42 163.253 182.297 163.426 182.187 163.607C182.025 163.839 181.875 164.079 181.738 164.325C181.375 164.962 181.063 165.625 180.805 166.309C180.502 167.152 180.273 168.02 180.124 168.902C179.99 169.787 179.933 170.682 179.955 171.576C179.983 172.305 180.07 173.032 180.217 173.747C180.269 174.055 180.351 174.317 180.415 174.568C180.467 174.773 180.529 174.974 180.602 175.172C180.657 175.341 180.725 175.505 180.805 175.663Z" fill="#263238"/>
<path d="M149.02 140.79C149.02 140.847 149.498 141.138 150.028 141.6C150.558 142.061 150.943 142.5 150.943 142.46C150.757 142.059 150.488 141.7 150.153 141.406C149.818 141.111 149.424 140.888 148.996 140.75L149.02 140.79Z" fill="#263238"/>
<path d="M144.532 143.321C144.486 143.366 144.917 143.822 145.267 144.495C145.616 145.168 145.75 145.778 145.82 145.772C145.845 145.289 145.722 144.811 145.465 144.398C145.276 143.953 144.95 143.577 144.532 143.321Z" fill="#263238"/>
<path d="M136.816 145.971C137.019 145.567 137.185 145.145 137.311 144.712C137.504 144.301 137.65 143.871 137.748 143.429C137.203 144.176 136.88 145.056 136.816 145.971Z" fill="#263238"/>
<path d="M131.856 143.68C131.921 143.68 132.09 142.956 132.579 142.175C133.069 141.394 133.651 140.904 133.605 140.853C133.087 141.131 132.665 141.553 132.393 142.067C132.058 142.542 131.871 143.103 131.856 143.68Z" fill="#263238"/>
<path d="M117.619 157.383C117.56 157.383 118.289 163.174 119.256 170.293C120.224 177.413 121.046 183.181 121.11 183.175C121.174 183.17 120.439 177.384 119.472 170.265C118.505 163.146 117.683 157.377 117.619 157.383Z" fill="#263238"/>
<path d="M182.414 166.742C182.392 166.941 182.392 167.142 182.414 167.341C182.427 167.574 182.456 167.806 182.501 168.036C182.53 168.173 182.554 168.315 182.577 168.469C182.6 168.623 182.659 168.777 182.705 168.942C182.913 169.728 183.198 170.491 183.556 171.222C184.002 172.111 184.532 172.957 185.141 173.748C185.765 174.529 186.475 175.242 187.257 175.874C187.901 176.385 188.615 176.805 189.378 177.122C189.541 177.19 189.693 177.259 189.844 177.31L190.276 177.43L190.655 177.532C190.771 177.532 190.882 177.561 190.981 177.572C191.174 177.604 191.368 177.621 191.564 177.624C190.827 177.481 190.106 177.268 189.413 176.985C188.678 176.649 187.988 176.224 187.362 175.72C186.598 175.09 185.904 174.383 185.293 173.611C184.693 172.833 184.164 172.005 183.713 171.137C183.356 170.419 183.06 169.674 182.828 168.908C182.484 167.58 182.472 166.737 182.414 166.742Z" fill="#263238"/>
<g opacity="0.3">
<path d="M119.012 215.112C117.176 214.246 116.762 211.92 116.575 209.937C116.028 204.123 115.478 198.311 114.926 192.501C114.67 189.765 114.547 186.647 116.517 184.692C118.318 182.907 121.18 182.799 123.738 182.805C139.561 182.85 153.536 183.306 169.359 183.375L168.555 210.45L119.012 215.112Z" fill="black"/>
</g>
<path d="M176.178 187.53L174.494 218.932C174.461 219.514 174.201 220.062 173.767 220.463C173.334 220.864 172.759 221.087 172.163 221.086L121.028 221.177C120.43 221.178 119.854 220.954 119.42 220.55C118.986 220.147 118.727 219.596 118.697 219.011L116.745 188.14C116.68 186.863 117.613 185.153 118.942 185.131H173.824C174.142 185.127 174.458 185.187 174.752 185.308C175.046 185.429 175.311 185.607 175.532 185.832C175.753 186.057 175.924 186.323 176.035 186.615C176.146 186.908 176.195 187.219 176.178 187.53Z" fill="#E0E0E0"/>
<path d="M176.178 187.53C176.181 187.492 176.181 187.454 176.178 187.416C176.188 187.299 176.188 187.18 176.178 187.063C176.117 186.665 175.95 186.289 175.693 185.975C175.436 185.661 175.099 185.418 174.715 185.273C174.32 185.132 173.899 185.074 173.48 185.102H170.373L150.558 185.068L121.168 185.039H119.082C118.71 185.023 118.343 185.116 118.027 185.307C117.717 185.502 117.452 185.756 117.246 186.054C116.829 186.65 116.605 187.355 116.605 188.077C116.646 188.778 116.692 189.485 116.733 190.192C116.908 193.042 117.094 195.892 117.275 198.839C117.648 204.716 118.033 210.809 118.441 217.028L118.516 218.168C118.551 218.561 118.545 218.937 118.615 219.348C118.698 219.745 118.882 220.116 119.151 220.426C119.42 220.735 119.765 220.972 120.154 221.115C120.539 221.245 120.947 221.299 121.355 221.274H124.851H134.03L151.386 221.234L167.092 221.2H170.717H171.603C171.905 221.204 172.206 221.191 172.506 221.16C173.098 221.081 173.64 220.791 174.028 220.346C174.416 219.902 174.623 219.333 174.61 218.749C174.639 218.179 174.669 217.666 174.698 217.13C174.756 216.059 174.809 215.016 174.861 213.995C175.286 205.827 175.63 199.215 175.863 194.615C175.98 192.335 176.067 190.563 176.126 189.354C176.155 188.756 176.178 188.3 176.19 187.986C176.201 187.673 176.19 187.519 176.19 187.519L176.155 187.986C176.155 188.3 176.108 188.756 176.073 189.354C176.003 190.563 175.898 192.33 175.77 194.615C175.514 199.175 175.147 205.793 174.692 213.961C174.639 214.981 174.581 216.03 174.523 217.096C174.496 217.632 174.467 218.173 174.436 218.721C174.442 219.261 174.252 219.786 173.899 220.203C173.535 220.62 173.027 220.892 172.471 220.966C172.184 220.986 171.896 220.986 171.609 220.966H167.086H151.38H134.024H124.845H121.349C120.97 220.992 120.589 220.943 120.23 220.824C119.875 220.693 119.561 220.476 119.315 220.194C119.07 219.912 118.901 219.574 118.825 219.211C118.761 218.857 118.761 218.447 118.732 218.071L118.656 216.931C118.26 210.701 117.875 204.619 117.491 198.742C117.304 195.807 117.118 192.917 116.908 190.095C116.867 189.388 116.82 188.687 116.78 187.986C116.775 187.309 116.978 186.646 117.362 186.082C117.532 185.798 117.775 185.562 118.068 185.4C118.361 185.238 118.693 185.155 119.029 185.159H121.116H150.5L170.315 185.125H173.421C173.834 185.091 174.249 185.143 174.639 185.279C174.961 185.402 175.248 185.597 175.479 185.849C175.803 186.178 176.018 186.595 176.096 187.046C176.132 187.206 176.16 187.367 176.178 187.53Z" fill="#263238"/>
<path d="M143.046 202.857C143.046 203.44 143.223 204.01 143.554 204.495C143.885 204.979 144.356 205.357 144.906 205.58C145.457 205.803 146.063 205.861 146.647 205.748C147.231 205.634 147.768 205.353 148.19 204.941C148.611 204.529 148.898 204.004 149.014 203.432C149.131 202.861 149.071 202.268 148.843 201.73C148.615 201.191 148.229 200.731 147.733 200.407C147.238 200.083 146.655 199.91 146.059 199.91C145.261 199.912 144.495 200.223 143.93 200.775C143.366 201.328 143.048 202.076 143.046 202.857Z" fill="white"/>
<path d="M143.046 202.857C143.075 202.857 143.046 202.595 143.186 202.151C143.363 201.521 143.751 200.967 144.287 200.577C144.72 200.26 145.235 200.066 145.774 200.019C146.313 199.971 146.855 200.072 147.339 200.308C147.823 200.545 148.23 200.909 148.514 201.359C148.799 201.809 148.95 202.328 148.95 202.857C148.95 203.275 148.856 203.688 148.675 204.066C148.494 204.445 148.23 204.78 147.902 205.047C147.574 205.315 147.19 205.508 146.776 205.615C146.363 205.721 145.931 205.737 145.511 205.662C145.063 205.584 144.64 205.404 144.276 205.137C143.739 204.748 143.352 204.194 143.174 203.564C143.052 203.12 143.063 202.857 143.034 202.857C143.025 202.92 143.025 202.983 143.034 203.045C143.036 203.228 143.057 203.409 143.098 203.587C143.252 204.251 143.637 204.841 144.188 205.257C144.569 205.545 145.015 205.741 145.488 205.827C146.033 205.931 146.597 205.89 147.12 205.707C147.703 205.507 148.209 205.137 148.571 204.647C148.943 204.156 149.155 203.566 149.178 202.956C149.202 202.345 149.036 201.741 148.703 201.224C148.369 200.707 147.884 200.301 147.31 200.058C146.737 199.815 146.101 199.748 145.488 199.865C145.015 199.951 144.569 200.147 144.188 200.435C143.637 200.853 143.252 201.445 143.098 202.111C143.057 202.288 143.035 202.47 143.034 202.652C143.027 202.721 143.031 202.79 143.046 202.857Z" fill="#263238"/>
<path d="M174.459 191.019C174.395 191.019 174.144 196.291 173.876 202.8C173.608 209.31 173.474 214.594 173.538 214.594C173.602 214.594 173.847 209.321 174.121 202.812C174.395 196.302 174.517 191.019 174.459 191.019Z" fill="#263238"/>
<path d="M189.827 150.053C190.124 149.802 188.819 144.871 188.819 144.871C188.819 144.871 192.286 139.337 192.38 137.553C192.473 135.768 191.01 132.103 191.01 132.103L181.056 129.601C181.056 129.601 177.862 135.409 177.221 137.461C176.58 139.513 178.334 146.49 178.334 146.49L180.019 150.064C180.019 150.064 185.089 153.98 189.827 150.053Z" fill="#FFBE9D"/>
<path d="M192.356 138.618C192.745 137.917 193.095 137.196 193.405 136.458C194.035 134.993 194.81 133.562 193.405 132.742C193.187 132.601 192.94 132.508 192.682 132.468C192.423 132.429 192.159 132.444 191.908 132.514C191.908 132.514 192.123 131.282 191.371 130.804C191.154 130.669 190.906 130.588 190.65 130.566C190.393 130.544 190.135 130.583 189.897 130.678C189.897 130.678 190.13 128.968 189.052 128.21C188.645 127.948 188.172 127.802 187.685 127.788C187.198 127.774 186.717 127.893 186.295 128.13C186.295 128.13 187.152 120.538 187.228 120.15C187.496 118.674 186.942 117.369 185.439 117.734C184.885 117.865 184.582 118.435 183.935 120.908C183.288 123.382 182.251 127.6 182.251 127.6C182.251 127.6 180.502 130.57 179.68 132.16C178.859 133.751 177.221 137.438 177.087 138.43C176.732 140.944 178.253 144.273 178.253 144.273L188.83 144.843C188.83 144.843 191.954 139.337 192.356 138.618Z" fill="#FFBE9D"/>
<path d="M191.698 132.839C191.398 133.199 191.125 133.58 190.882 133.979L190.043 135.227C189.868 135.472 189.716 135.731 189.588 136.002C189.439 136.309 189.396 136.655 189.466 136.988C189.496 137.163 189.574 137.326 189.691 137.462C189.808 137.597 189.959 137.699 190.13 137.758C190.45 137.835 190.789 137.795 191.08 137.644C191.328 137.522 191.564 137.379 191.785 137.216C191.995 137.068 192.187 136.931 192.368 136.794C192.712 136.532 192.98 136.31 193.155 136.15C193.33 135.991 193.429 135.894 193.417 135.882C193.406 135.871 192.98 136.185 192.252 136.675C191.852 136.97 191.429 137.233 190.987 137.461C190.74 137.583 190.457 137.616 190.188 137.553C190.054 137.506 189.935 137.425 189.843 137.317C189.752 137.21 189.692 137.081 189.67 136.943C189.613 136.654 189.65 136.355 189.775 136.088C189.896 135.825 190.04 135.573 190.206 135.335L190.999 134.064C191.267 133.676 191.501 133.266 191.698 132.839Z" fill="#EB996E"/>
<path d="M182.997 133.745C183.092 133.201 183.054 132.642 182.886 132.115C182.791 131.573 182.565 131.061 182.227 130.621C182.169 130.65 182.466 131.311 182.67 132.166C182.874 133.021 182.956 133.745 182.997 133.745Z" fill="#EB996E"/>
<path d="M178.83 135.962C179.804 135.037 181.034 134.409 182.367 134.155C183.696 133.906 185.056 133.856 186.4 134.007C187.472 134.098 188.731 134.372 189.192 135.312C189.652 136.253 189.093 137.535 188.137 138.088C187.133 138.577 185.998 138.747 184.891 138.573C183.793 138.396 182.677 138.352 181.569 138.442" fill="#FFBE9D"/>
<path d="M181.569 138.442C181.569 138.442 181.866 138.442 182.402 138.442C183.161 138.474 183.918 138.544 184.669 138.653C185.197 138.718 185.729 138.739 186.26 138.715C186.88 138.697 187.489 138.548 188.044 138.276C188.667 137.961 189.141 137.421 189.367 136.772C189.489 136.425 189.515 136.054 189.442 135.694C189.353 135.326 189.15 134.993 188.859 134.742C188.274 134.294 187.567 134.025 186.826 133.967C186.158 133.892 185.487 133.852 184.815 133.847C183.673 133.827 182.536 133.996 181.452 134.349C180.721 134.59 180.037 134.95 179.43 135.415C179.269 135.542 179.115 135.677 178.969 135.82C178.87 135.922 178.824 135.979 178.83 135.985C178.835 135.991 179.051 135.785 179.482 135.478C180.098 135.049 180.778 134.716 181.499 134.492C182.573 134.171 183.692 134.021 184.815 134.047C185.477 134.058 186.139 134.102 186.796 134.178C187.492 134.232 188.156 134.484 188.708 134.902C188.965 135.125 189.146 135.419 189.227 135.746C189.291 136.067 189.267 136.399 189.157 136.709C188.95 137.307 188.516 137.805 187.944 138.1C187.418 138.363 186.839 138.513 186.249 138.539C185.728 138.563 185.206 138.55 184.687 138.499C183.929 138.401 183.166 138.353 182.402 138.356C182.195 138.363 181.989 138.382 181.784 138.413C181.639 138.413 181.569 138.43 181.569 138.442Z" fill="#EB996E"/>
<path d="M191.622 132.958C190.509 134.611 189.524 136.43 188.586 138.185C188.362 138.721 187.996 139.187 187.525 139.536C187.123 139.776 186.126 139.337 185.683 139.189L188.737 132.388" fill="#FFBE9D"/>
<path d="M188.737 132.388C188.633 132.55 188.543 132.719 188.469 132.896L187.793 134.321C187.21 135.529 186.447 137.228 185.584 139.143L185.532 139.251L185.648 139.291C185.997 139.428 186.353 139.546 186.715 139.645C186.868 139.682 187.024 139.705 187.181 139.713C187.266 139.717 187.35 139.708 187.432 139.684C187.515 139.665 187.592 139.628 187.659 139.576C187.905 139.402 188.115 139.184 188.277 138.932C188.591 138.448 188.813 137.963 189.063 137.518C189.541 136.612 189.978 135.808 190.363 135.13C190.748 134.452 191.062 133.916 191.29 133.546C191.414 133.364 191.525 133.173 191.622 132.976C191.467 133.152 191.331 133.343 191.214 133.546C190.969 133.905 190.631 134.429 190.229 135.096C189.827 135.763 189.372 136.567 188.883 137.467C188.626 137.912 188.393 138.408 188.096 138.858C187.942 139.083 187.744 139.277 187.513 139.428C187.395 139.488 187.265 139.522 187.132 139.528C187 139.534 186.867 139.511 186.744 139.462C186.388 139.364 186.038 139.248 185.695 139.114L185.759 139.263C186.622 137.336 187.373 135.632 187.904 134.406L188.516 132.953C188.607 132.772 188.681 132.583 188.737 132.388Z" fill="#EB996E"/>
<path d="M189.565 130.365C188.582 132.774 187.599 135.183 186.616 137.592C186.435 138.116 186.167 138.607 185.823 139.046C185.646 139.261 185.418 139.431 185.16 139.541C184.901 139.651 184.619 139.698 184.337 139.679C183.96 139.582 183.627 139.365 183.391 139.063C183.154 138.76 183.028 138.389 183.032 138.008C183.055 137.247 183.242 136.5 183.579 135.814C184.464 133.618 185.172 131.358 185.695 129.054" fill="#FFBE9D"/>
<path d="M185.695 129.054C185.66 129.122 185.634 129.195 185.619 129.27L185.445 129.909C185.293 130.479 185.072 131.265 184.763 132.246C184.454 133.226 184.046 134.383 183.539 135.666C183.228 136.321 183.02 137.019 182.921 137.735C182.893 138.128 182.972 138.521 183.148 138.875C183.322 139.258 183.639 139.562 184.034 139.724C184.235 139.795 184.45 139.823 184.663 139.807C184.876 139.79 185.083 139.729 185.27 139.627C185.626 139.438 185.925 139.161 186.138 138.824C186.493 138.196 186.791 137.54 187.03 136.863C187.537 135.603 187.991 134.469 188.376 133.5L189.268 131.22C189.361 130.969 189.437 130.764 189.495 130.598C189.527 130.527 189.551 130.453 189.565 130.376C189.517 130.439 189.48 130.508 189.454 130.581C189.384 130.747 189.291 130.946 189.186 131.191L188.242 133.426C187.846 134.389 187.374 135.518 186.855 136.772C186.614 137.435 186.318 138.077 185.969 138.692C185.775 138.996 185.504 139.245 185.182 139.416C185.023 139.505 184.847 139.559 184.665 139.575C184.483 139.59 184.3 139.567 184.127 139.508C183.786 139.362 183.512 139.098 183.358 138.767C183.196 138.443 183.126 138.083 183.154 137.723C183.241 137.029 183.438 136.352 183.737 135.717C184.238 134.446 184.623 133.277 184.902 132.297C185.182 131.317 185.398 130.496 185.526 129.937C185.584 129.652 185.631 129.436 185.66 129.287C185.683 129.211 185.694 129.133 185.695 129.054Z" fill="#EB996E"/>
<path d="M196.343 167.723C196.075 166.765 189.349 147.311 189.349 147.311L178.229 146.011L182.775 162.769C182.775 162.769 182.07 167.027 182.775 169.547C183.48 172.066 189.186 178.923 192.1 177.276C195.014 175.628 196.605 168.68 196.343 167.723Z" fill="#FFBE9D"/>
<path d="M182.752 144.29C182.967 144.316 183.186 144.288 183.387 144.21C183.887 144.058 184.346 143.8 184.732 143.454C185.118 143.108 185.421 142.683 185.619 142.21C185.714 142.02 185.76 141.811 185.753 141.6C185.475 142.235 185.08 142.814 184.588 143.31C184.044 143.746 183.421 144.079 182.752 144.29Z" fill="#EB996E"/>
<path d="M201.466 53.656H204.162V54.664H201.466V53.656ZM201.562 55.96H204.61V57H200.274V51.4H204.506V52.44H201.562V55.96ZM204.946 57L207.354 53.68V54.624L205.05 51.4H206.522L208.114 53.648L207.498 53.656L209.066 51.4H210.474L208.186 54.568V53.64L210.61 57H209.114L207.466 54.624H208.058L206.434 57H204.946ZM211.118 57V51.4H213.542C214.043 51.4 214.475 51.4827 214.838 51.648C215.2 51.808 215.48 52.04 215.678 52.344C215.875 52.648 215.974 53.0107 215.974 53.432C215.974 53.848 215.875 54.208 215.678 54.512C215.48 54.816 215.2 55.0507 214.838 55.216C214.475 55.376 214.043 55.456 213.542 55.456H211.838L212.414 54.872V57H211.118ZM212.414 55.016L211.838 54.4H213.47C213.87 54.4 214.168 54.3147 214.366 54.144C214.563 53.9733 214.662 53.736 214.662 53.432C214.662 53.1227 214.563 52.8827 214.366 52.712C214.168 52.5413 213.87 52.456 213.47 52.456H211.838L212.414 51.84V55.016ZM218.091 53.656H220.787V54.664H218.091V53.656ZM218.187 55.96H221.235V57H216.899V51.4H221.131V52.44H218.187V55.96ZM222.266 57V51.4H224.69C225.191 51.4 225.623 51.4827 225.986 51.648C226.349 51.808 226.629 52.04 226.826 52.344C227.023 52.648 227.122 53.0107 227.122 53.432C227.122 53.848 227.023 54.208 226.826 54.512C226.629 54.8107 226.349 55.04 225.986 55.2C225.623 55.36 225.191 55.44 224.69 55.44H222.986L223.562 54.872V57H222.266ZM225.826 57L224.426 54.968H225.81L227.226 57H225.826ZM223.562 55.016L222.986 54.408H224.618C225.018 54.408 225.317 54.3227 225.514 54.152C225.711 53.976 225.81 53.736 225.81 53.432C225.81 53.1227 225.711 52.8827 225.514 52.712C225.317 52.5413 225.018 52.456 224.618 52.456H222.986L223.562 51.84V55.016ZM228.149 57V51.4H229.445V57H228.149ZM231.966 53.656H234.662V54.664H231.966V53.656ZM232.062 55.96H235.11V57H230.774V51.4H235.006V52.44H232.062V55.96ZM236.141 57V51.4H237.213L240.517 55.432H239.997V51.4H241.277V57H240.213L236.901 52.968H237.421V57H236.141ZM245.282 57.096C244.85 57.096 244.447 57.0267 244.074 56.888C243.706 56.744 243.386 56.5413 243.114 56.28C242.842 56.0187 242.629 55.712 242.474 55.36C242.325 55.008 242.25 54.6213 242.25 54.2C242.25 53.7787 242.325 53.392 242.474 53.04C242.629 52.688 242.842 52.3813 243.114 52.12C243.391 51.8587 243.714 51.6587 244.082 51.52C244.45 51.376 244.853 51.304 245.29 51.304C245.775 51.304 246.213 51.3893 246.602 51.56C246.997 51.7253 247.327 51.9707 247.594 52.296L246.762 53.064C246.57 52.8453 246.357 52.6827 246.122 52.576C245.887 52.464 245.631 52.408 245.354 52.408C245.093 52.408 244.853 52.4507 244.634 52.536C244.415 52.6213 244.226 52.744 244.066 52.904C243.906 53.064 243.781 53.2533 243.69 53.472C243.605 53.6907 243.562 53.9333 243.562 54.2C243.562 54.4667 243.605 54.7093 243.69 54.928C243.781 55.1467 243.906 55.336 244.066 55.496C244.226 55.656 244.415 55.7787 244.634 55.864C244.853 55.9493 245.093 55.992 245.354 55.992C245.631 55.992 245.887 55.9387 246.122 55.832C246.357 55.72 246.57 55.552 246.762 55.328L247.594 56.096C247.327 56.4213 246.997 56.6693 246.602 56.84C246.213 57.0107 245.773 57.096 245.282 57.096ZM249.661 53.656H252.357V54.664H249.661V53.656ZM249.757 55.96H252.805V57H248.469V51.4H252.701V52.44H249.757V55.96Z" fill="black"/>
</svg>
