<svg width="356" height="356" viewBox="0 0 356 356" fill="none" xmlns="http://www.w3.org/2000/svg">
<path d="M305.605 209.641C304.37 200.271 302.309 191.029 299.446 182.023C296.391 172.055 292.831 162.008 293.202 151.613C293.465 144.287 295.679 137.181 296.762 129.926C298.534 118.327 297.438 106.387 294.383 95.0376C292.183 86.8852 288.922 78.8966 283.703 72.2536C279.033 66.3084 272.924 61.5736 266.345 57.8855C248.958 48.0527 228.609 44.9555 208.673 43.6455C189.534 42.3639 170.004 42.5988 151.585 47.9175C140.13 51.2077 129.472 56.8128 120.27 64.3861C111.068 71.9594 103.517 81.3399 98.0851 91.9475C86.2445 115.13 79.3951 141.182 62.8055 161.724C54.0479 172.567 42.6274 181.788 37.6149 194.789C30.4451 213.379 39.3522 235.779 55.6 247.313C65.8457 254.59 78.2559 258.064 89.3916 263.896C99.6657 269.271 108.794 276.619 118.911 282.286C156.077 303.098 202.208 299.04 243.241 287.819C263.76 282.23 285.249 273.949 297.025 256.234C306.053 242.628 307.584 226.145 305.605 209.641Z" fill="#FF725F"/>
<path opacity="0.8" d="M305.605 209.641C304.37 200.271 302.309 191.029 299.446 182.023C296.391 172.055 292.831 162.008 293.202 151.613C293.465 144.287 295.679 137.181 296.762 129.926C298.534 118.327 297.438 106.387 294.383 95.0376C292.183 86.8852 288.922 78.8966 283.703 72.2536C279.033 66.3084 272.924 61.5736 266.345 57.8855C248.958 48.0527 228.609 44.9555 208.673 43.6455C189.534 42.3639 170.004 42.5988 151.585 47.9175C140.13 51.2077 129.472 56.8128 120.27 64.3861C111.068 71.9594 103.517 81.3399 98.0851 91.9475C86.2445 115.13 79.3951 141.182 62.8055 161.724C54.0479 172.567 42.6274 181.788 37.6149 194.789C30.4451 213.379 39.3522 235.779 55.6 247.313C65.8457 254.59 78.2559 258.064 89.3916 263.896C99.6657 269.271 108.794 276.619 118.911 282.286C156.077 303.098 202.208 299.04 243.241 287.819C263.76 282.23 285.249 273.949 297.025 256.234C306.053 242.628 307.584 226.145 305.605 209.641Z" fill="white"/>
<path d="M182.471 310.325C248.844 310.325 302.65 306.621 302.65 302.052C302.65 297.482 248.844 293.778 182.471 293.778C116.099 293.778 62.293 297.482 62.293 302.052C62.293 306.621 116.099 310.325 182.471 310.325Z" fill="#263238"/>
<path d="M110.275 239.723C109.776 237.317 109.114 233.863 108.509 229.691C108.331 228.488 108.16 227.213 108.003 225.896C108.544 225.796 112.845 224.956 114.518 223.76C116.042 222.685 117.679 220.912 117.743 218.919C117.78 218.452 117.717 217.983 117.559 217.543C117.401 217.102 117.151 216.7 116.826 216.364C116.501 216.027 116.108 215.763 115.673 215.59C115.239 215.417 114.772 215.338 114.304 215.359C111.513 215.551 108.936 219.88 108.331 222.308C108.295 222.464 108.046 224.344 107.939 225.312C107.847 224.515 107.754 223.725 107.669 222.899C107.54 221.702 107.441 220.442 107.341 219.218C107.341 218.577 107.277 217.936 107.249 217.288C107.22 216.64 107.249 216.006 107.249 215.351C107.249 214.397 107.32 213.408 107.37 212.425C108.594 212.368 112.176 212.133 113.778 211.321C115.38 210.51 117.338 208.965 117.701 207.049C117.8 206.597 117.804 206.129 117.712 205.675C117.62 205.221 117.434 204.791 117.165 204.414C116.897 204.036 116.553 203.719 116.154 203.483C115.756 203.246 115.313 203.096 114.853 203.041C112.069 202.813 108.858 206.701 107.904 209.007C107.868 209.079 107.718 209.591 107.54 210.197C107.626 209.235 107.704 208.274 107.825 207.306C108.153 204.565 108.58 201.774 108.993 198.975C109.078 198.392 109.157 197.815 109.242 197.231C110.267 197.181 114.155 196.968 115.842 196.12C117.53 195.273 119.402 193.756 119.766 191.848C119.866 191.396 119.871 190.927 119.779 190.473C119.688 190.019 119.501 189.589 119.233 189.211C118.964 188.833 118.62 188.516 118.221 188.279C117.822 188.043 117.378 187.893 116.918 187.84C114.126 187.612 110.922 191.499 109.961 193.806C109.961 193.885 109.748 194.518 109.548 195.173C109.755 193.657 109.933 192.133 110.068 190.624C110.319 188.021 110.392 185.404 110.289 182.792C110.652 182.792 115.209 182.614 117.088 181.674C118.762 180.841 120.648 179.317 121.012 177.402C121.112 176.95 121.117 176.482 121.025 176.028C120.933 175.574 120.747 175.144 120.479 174.767C120.21 174.39 119.865 174.073 119.466 173.837C119.068 173.602 118.624 173.453 118.164 173.4C115.372 173.165 112.168 177.06 111.207 179.36C111.136 179.524 110.495 181.731 110.303 182.521C110.3 182.49 110.3 182.459 110.303 182.429C110.138 179.871 109.748 177.334 109.135 174.846C108.598 172.621 107.932 170.429 107.142 168.281C106.43 166.287 105.654 164.5 104.956 162.927C104.571 162.072 104.201 161.303 103.852 160.591H103.909C103.959 160.591 103.824 157.209 103.795 157.031C103.411 154.568 101.225 150.025 98.4625 149.584C98.0019 149.523 97.5336 149.559 97.0882 149.691C96.6427 149.824 96.2301 150.048 95.8774 150.351C95.5246 150.653 95.2396 151.026 95.0409 151.446C94.8423 151.866 94.7344 152.323 94.7245 152.788C94.6106 154.76 96.0844 156.69 97.5013 157.9C98.9182 159.111 102.749 160.292 103.689 160.563C104.037 161.318 104.401 162.122 104.792 163.019C105.454 164.607 106.216 166.401 106.85 168.409C107.028 168.943 107.199 169.527 107.377 170.082C106.885 169.2 106.195 167.996 106.109 167.889C104.636 165.875 100.598 162.849 97.9498 163.731C97.5129 163.889 97.1141 164.137 96.7795 164.459C96.4449 164.781 96.182 165.171 96.008 165.601C95.834 166.032 95.7528 166.495 95.7696 166.959C95.7865 167.423 95.901 167.878 96.1058 168.295C96.9103 170.097 99.1104 171.143 100.933 171.549C102.756 171.955 106.814 171.236 107.683 171.065C108.053 172.311 108.395 173.6 108.694 174.967C109.232 177.423 109.551 179.923 109.648 182.436C109.648 182.585 109.648 182.735 109.648 182.884C109.477 182.4 108.366 179.844 108.274 179.673C107.028 177.537 103.347 174.055 100.613 174.639C100.16 174.749 99.7364 174.952 99.368 175.236C98.9997 175.521 98.6955 175.879 98.4751 176.289C98.2548 176.699 98.1232 177.151 98.0892 177.615C98.0551 178.079 98.1192 178.545 98.2774 178.982C98.8826 180.855 100.962 182.129 102.72 182.742C104.749 183.454 109.47 182.998 109.641 182.984C109.68 185.505 109.554 188.026 109.264 190.531C109.057 192.389 108.772 194.262 108.466 196.135C108.231 195.515 107.206 193.137 107.106 192.973C105.867 190.837 102.186 187.363 99.4521 187.947C99.0008 188.056 98.5775 188.259 98.2098 188.543C97.8421 188.827 97.5382 189.185 97.318 189.594C97.0977 190.003 96.966 190.454 96.9313 190.917C96.8967 191.38 96.9598 191.845 97.1168 192.283C97.722 194.162 99.7939 195.43 101.56 196.049C103.539 196.761 108.06 196.327 108.445 196.291C108.302 197.138 108.167 197.993 108.025 198.847C107.548 201.624 107.063 204.415 106.672 207.178C106.529 208.139 106.43 209.086 106.33 210.026C105.953 209.107 105.234 207.455 105.155 207.32C103.909 205.184 100.228 201.702 97.4941 202.293C97.0428 202.403 96.6195 202.606 96.2518 202.89C95.8841 203.174 95.5802 203.532 95.36 203.941C95.1397 204.35 95.008 204.8 94.9733 205.264C94.9387 205.727 95.0018 206.192 95.1588 206.629C95.764 208.509 97.8359 209.776 99.6017 210.396C101.367 211.015 105.177 210.745 106.252 210.659C106.088 212.24 105.967 213.813 105.917 215.366C105.917 216.035 105.853 216.726 105.917 217.366C105.981 218.007 105.917 218.662 105.96 219.296C106.045 220.613 106.109 221.838 106.216 223.062C106.266 223.682 106.323 224.266 106.38 224.864C106.138 223.881 105.725 222.322 105.668 222.187C104.764 219.858 101.652 215.893 98.8541 216.056C98.3915 216.098 97.9427 216.236 97.5368 216.461C97.1309 216.687 96.7769 216.995 96.4978 217.366C96.2186 217.738 96.0204 218.163 95.9161 218.616C95.8118 219.068 95.8036 219.538 95.8921 219.994C96.2054 221.937 98.0282 223.511 99.7085 224.387C101.531 225.348 105.91 225.633 106.444 225.668C106.586 227.135 106.743 228.566 106.907 229.898C107.434 234.127 108.025 237.623 108.473 240.072C108.922 242.521 109.242 243.91 109.242 243.91C109.264 244.044 109.313 244.172 109.386 244.287C109.46 244.401 109.557 244.499 109.67 244.574C109.783 244.649 109.911 244.699 110.045 244.723C110.179 244.746 110.316 244.741 110.448 244.708C110.58 244.676 110.704 244.616 110.812 244.533C110.919 244.45 111.009 244.346 111.074 244.227C111.139 244.107 111.179 243.976 111.191 243.84C111.203 243.705 111.187 243.569 111.143 243.44C111.143 243.44 110.773 242.137 110.275 239.723Z" fill="#FF725F"/>
<path d="M107.882 170.545C107.882 170.545 112.581 169.121 114.212 167.648C115.636 166.409 117.06 164.437 116.853 162.464C116.831 162.001 116.711 161.547 116.502 161.133C116.292 160.718 115.998 160.353 115.638 160.06C115.278 159.767 114.86 159.554 114.412 159.433C113.964 159.312 113.495 159.287 113.037 159.36C110.289 159.873 108.217 164.472 107.903 166.95C107.875 167.163 107.832 170.56 107.882 170.545Z" fill="#FF725F"/>
<path d="M110.36 244.707C110.476 244.787 110.573 244.891 110.646 245.012C110.718 245.134 110.763 245.269 110.778 245.409C110.793 245.549 110.778 245.691 110.734 245.825C110.69 245.959 110.617 246.081 110.521 246.184C110.425 246.288 110.308 246.369 110.178 246.423C110.047 246.477 109.907 246.502 109.766 246.497C109.625 246.492 109.487 246.457 109.361 246.394C109.235 246.33 109.124 246.241 109.036 246.131C109.036 246.131 107.996 245.134 106.28 243.347C104.564 241.56 102.129 238.961 99.3596 235.729C98.4838 234.703 97.5725 233.593 96.6397 232.453C96.1769 232.717 92.3677 234.896 90.3172 235.095C88.4589 235.273 86.0452 234.988 84.7066 233.536C84.3811 233.205 84.1289 232.809 83.9662 232.375C83.8034 231.94 83.7339 231.476 83.7621 231.013C83.7903 230.549 83.9156 230.097 84.1298 229.686C84.3441 229.274 84.6425 228.912 85.0057 228.623C87.2485 226.943 92.0331 228.537 94.0694 229.983C94.1905 230.068 95.3937 231.136 96.1342 231.82C95.7569 231.35 95.4222 230.901 95.0021 230.396C94.2403 229.435 93.5069 228.452 92.7166 227.391L91.613 225.81C91.2285 225.291 90.901 224.693 90.5308 224.13C89.712 222.806 88.9501 221.425 88.2168 220.015C87.3695 220.677 84.3364 222.998 82.5208 223.461C80.7052 223.924 78.2488 224.002 76.7393 222.749C76.3668 222.471 76.057 222.118 75.8299 221.713C75.6028 221.307 75.4635 220.859 75.4212 220.396C75.3789 219.933 75.4345 219.467 75.5843 219.027C75.7341 218.587 75.9748 218.184 76.2908 217.843C78.2559 215.85 83.2257 216.697 85.4542 217.843C85.5966 217.914 87.1061 218.897 87.9249 219.452C87.4905 218.598 87.0491 217.751 86.6361 216.875C85.44 214.354 84.3079 211.763 83.1687 209.178C82.8198 208.388 82.4567 207.605 82.1078 206.814C81.8088 207.056 78.263 209.897 76.2338 210.41C74.4253 210.873 71.9618 210.951 70.4524 209.698C70.0799 209.42 69.77 209.067 69.5429 208.662C69.3158 208.256 69.1766 207.808 69.1343 207.345C69.092 206.882 69.1475 206.416 69.2973 205.976C69.4471 205.536 69.6879 205.133 70.0038 204.792C71.9618 202.799 76.9316 203.646 79.1673 204.792C79.3381 204.878 81.5097 206.295 82.0153 206.679C81.2321 204.949 80.4417 203.233 79.5873 201.567C78.4466 199.317 77.1623 197.144 75.7425 195.059C75.6001 195.173 71.9191 198.156 69.8329 198.683C68.0245 199.139 65.5609 199.224 64.0515 197.971C63.6786 197.694 63.3684 197.341 63.1413 196.935C62.9142 196.529 62.7753 196.08 62.7336 195.617C62.692 195.154 62.7485 194.688 62.8995 194.248C63.0505 193.808 63.2927 193.405 63.6101 193.066C65.5681 191.072 70.5378 191.919 72.7664 193.066C72.9444 193.151 75.2797 194.675 75.6856 194.981C75.6001 194.86 75.5289 194.732 75.4435 194.611C73.9524 192.569 72.2846 190.663 70.4595 188.915C69.4627 187.932 68.4588 187.049 67.462 186.209C66.8283 186.836 63.902 189.662 62.1006 190.346C60.2993 191.029 57.9497 191.35 56.2765 190.289C55.876 190.054 55.5294 189.738 55.2594 189.36C54.9893 188.983 54.8018 188.553 54.7091 188.098C54.6164 187.643 54.6206 187.174 54.7214 186.721C54.8221 186.268 55.0172 185.841 55.2939 185.469C57.0241 183.268 62.0579 183.56 64.4004 184.429C64.5285 184.479 65.7674 185.098 66.6645 185.561C66.2089 185.191 65.7461 184.799 65.3046 184.458C63.6385 183.147 62.0365 182.051 60.6125 181.097C59.7937 180.563 59.0461 180.093 58.3413 179.673C57.4014 179.965 53.6065 181.097 51.7125 180.862C49.8186 180.627 47.5616 179.837 46.5648 178.128C46.3191 177.734 46.1588 177.293 46.0941 176.834C46.0295 176.374 46.0619 175.906 46.1894 175.46C46.3169 175.014 46.5366 174.599 46.8343 174.243C47.1319 173.887 47.501 173.598 47.9176 173.393C50.4665 172.24 54.7955 174.817 56.4616 176.668C56.604 176.832 58.5976 179.587 58.5406 179.602H58.4837C59.1957 180 59.9077 180.442 60.6909 180.94C62.1149 181.866 63.7738 182.927 65.4755 184.201C67.3172 185.558 69.081 187.018 70.7585 188.573C72.6383 190.319 74.3631 192.225 75.9134 194.269C75.9258 194.297 75.9426 194.324 75.9633 194.347C75.6927 193.578 75.0092 191.385 74.9736 191.214C74.5037 188.765 75.0377 183.746 77.4869 182.4C77.9003 182.188 78.3536 182.066 78.8173 182.041C79.281 182.016 79.7448 182.088 80.1786 182.254C80.6124 182.42 81.0064 182.675 81.3351 183.003C81.6638 183.331 81.9198 183.725 82.0865 184.158C82.8554 185.981 82.0865 188.295 81.1893 189.911C80.1356 191.734 76.4261 194.39 76.1341 194.596C77.6522 196.716 79.0294 198.932 80.2566 201.232C80.9686 202.571 81.6806 203.938 82.3357 205.319C82.1221 204.643 81.9369 204.038 81.9227 203.952C81.4528 201.503 81.9797 196.483 84.4361 195.138C84.8499 194.926 85.3036 194.804 85.7676 194.779C86.2317 194.755 86.6958 194.828 87.1296 194.995C87.5635 195.161 87.9574 195.417 88.2858 195.746C88.6142 196.075 88.8696 196.469 89.0356 196.903C89.8045 198.719 89.0356 201.033 88.1385 202.649C87.2413 204.265 84.0729 206.615 83.2399 207.22C83.4891 207.754 83.7454 208.281 83.9946 208.815C85.1979 211.371 86.3798 213.934 87.6187 216.412C88.053 217.281 88.5158 218.121 88.9715 218.968C88.7864 218.37 88.6369 217.865 88.6155 217.779C88.1456 215.33 88.6796 210.317 91.1289 208.972C91.5422 208.76 91.9955 208.638 92.4592 208.613C92.9229 208.587 93.3867 208.66 93.8205 208.826C94.2543 208.992 94.6484 209.247 94.977 209.575C95.3057 209.903 95.5617 210.297 95.7284 210.73C96.4973 212.546 95.764 214.867 94.8313 216.483C93.8985 218.1 91.0719 220.214 90.0822 220.94C90.5806 221.788 91.0719 222.642 91.5917 223.447C91.9619 223.988 92.3037 224.536 92.6739 225.056L93.8131 226.615C94.5749 227.576 95.351 228.58 96.12 229.499C96.6469 230.147 97.1595 230.752 97.6793 231.364C97.2307 230.503 96.3977 228.794 96.3478 228.644C95.5077 226.288 95.2727 221.254 97.4941 219.552C97.8705 219.28 98.2999 219.09 98.7544 218.995C99.209 218.9 99.6784 218.901 100.132 218.999C100.586 219.097 101.014 219.29 101.389 219.564C101.764 219.838 102.077 220.188 102.307 220.592C103.34 222.272 102.962 224.678 102.307 226.416C101.595 228.331 98.4411 231.4 98.0353 231.784C98.8968 232.795 99.7369 233.764 100.556 234.675C103.361 237.815 105.817 240.328 107.562 242.065C109.306 243.803 110.36 244.707 110.36 244.707ZM67.405 185.661C67.405 185.661 70.5307 181.866 71.0861 179.751C71.556 177.95 71.6557 175.479 70.4381 173.97C70.1631 173.595 69.8122 173.282 69.4082 173.051C69.0042 172.821 68.5562 172.678 68.0934 172.633C67.6306 172.587 67.1633 172.639 66.7221 172.786C66.2808 172.933 65.8755 173.172 65.5325 173.486C63.5246 175.429 64.3363 180.406 65.4399 182.649C65.504 182.841 67.3694 185.696 67.405 185.661Z" fill="#263238"/>
<path d="M92.1114 291.664C91.5062 289.279 90.6874 285.861 89.9042 281.696C89.6764 280.507 89.4486 279.232 89.235 277.929C89.7619 277.801 94.0267 276.776 95.643 275.516C97.1168 274.369 98.6761 272.504 98.6547 270.532C98.6651 270.07 98.5786 269.611 98.4007 269.185C98.2229 268.759 97.9577 268.375 97.6222 268.058C97.2868 267.74 96.8885 267.497 96.4532 267.343C96.0179 267.189 95.5551 267.128 95.0947 267.164C92.3108 267.477 89.9256 271.92 89.3987 274.369C89.3987 274.526 89.1994 276.42 89.1424 277.388C89.0071 276.598 88.879 275.815 88.7579 274.989C88.5799 273.807 88.4233 272.547 88.2667 271.329L88.0958 269.407C88.0175 268.752 88.0317 268.118 87.9961 267.47C87.9961 266.516 87.9961 265.526 87.9961 264.544C89.2136 264.43 92.7807 264.038 94.3614 263.155C95.942 262.272 97.8146 260.642 98.0851 258.691C98.1662 258.233 98.1499 257.764 98.0371 257.313C97.9244 256.862 97.7178 256.44 97.4309 256.075C97.1439 255.709 96.7831 255.408 96.372 255.192C95.9608 254.975 95.5086 254.848 95.0449 254.818C92.2539 254.704 89.2207 258.734 88.3592 261.083C88.3592 261.155 88.2026 261.667 88.0602 262.279C88.0602 261.318 88.1385 260.364 88.2097 259.389C88.4233 256.626 88.7223 253.828 89.0142 251.016C89.0712 250.425 89.1211 249.841 89.1851 249.257C90.2104 249.164 94.0766 248.773 95.7284 247.833C97.3802 246.893 99.1816 245.32 99.4593 243.362C99.5392 242.904 99.522 242.435 99.4088 241.985C99.2956 241.534 99.089 241.113 98.8022 240.748C98.5155 240.382 98.1552 240.081 97.7446 239.864C97.334 239.648 96.8824 239.519 96.419 239.488C93.628 239.382 90.5878 243.411 89.7334 245.754C89.7334 245.839 89.5483 246.466 89.3845 247.142C89.5198 245.612 89.6337 244.088 89.7049 242.571C89.8383 239.961 89.7954 237.344 89.5767 234.739C89.9398 234.739 94.4824 234.341 96.3265 233.315C97.9498 232.411 99.7797 230.802 100.05 228.844C100.131 228.386 100.115 227.917 100.002 227.466C99.8895 227.015 99.6829 226.593 99.396 226.228C99.1091 225.862 98.7482 225.561 98.3371 225.345C97.926 225.128 97.4738 225.001 97.01 224.971C94.219 224.864 91.1859 228.894 90.3243 231.236C90.2674 231.4 89.7262 233.629 89.5625 234.433C89.5625 234.433 89.5625 234.369 89.5625 234.341C89.2897 231.792 88.7893 229.274 88.0673 226.815C87.4299 224.618 86.6668 222.459 85.7818 220.35C84.9843 218.385 84.1299 216.633 83.361 215.088C82.9409 214.255 82.5422 213.507 82.1577 212.803H82.2147C82.2645 212.803 81.9868 209.435 81.9441 209.243C81.4528 206.793 79.0961 202.35 76.2481 202.03C75.7877 201.994 75.325 202.055 74.8896 202.209C74.4543 202.363 74.056 202.606 73.7206 202.924C73.3851 203.241 73.1199 203.625 72.9421 204.051C72.7643 204.477 72.6777 204.936 72.6881 205.398C72.6881 207.37 74.2189 209.235 75.6927 210.382C77.1666 211.528 81.0327 212.518 81.9868 212.774C82.3713 213.486 82.77 214.298 83.1972 215.174C83.9092 216.733 84.7351 218.491 85.4899 220.471C85.6963 220.998 85.8886 221.567 86.0879 222.123C85.5611 221.261 84.8134 220.086 84.728 219.987C83.1687 218.043 79.032 215.202 76.3905 216.199C75.9618 216.377 75.5753 216.643 75.2561 216.98C74.9369 217.317 74.6921 217.717 74.5377 218.155C74.3833 218.593 74.3226 219.058 74.3597 219.521C74.3968 219.984 74.5307 220.434 74.7529 220.841C75.6358 222.607 77.8786 223.54 79.7369 223.881C81.5952 224.223 85.5967 223.305 86.4582 223.091C86.8854 224.323 87.2912 225.597 87.6401 226.95C88.3036 229.392 88.7444 231.89 88.9573 234.412C88.9573 234.554 88.9573 234.711 88.9573 234.853C88.7722 234.383 87.5333 231.87 87.4478 231.706C86.1093 229.57 82.2787 226.316 79.5731 227.021C79.1268 227.15 78.7126 227.372 78.3578 227.672C78.0029 227.972 77.7153 228.343 77.5137 228.762C77.3122 229.18 77.2011 229.637 77.1879 230.101C77.1747 230.566 77.2597 231.028 77.4371 231.457C78.1491 233.308 80.2851 234.49 82.0367 235.017C84.0943 235.636 88.7864 234.974 88.9644 234.953C89.1076 237.47 89.091 239.993 88.9146 242.507C88.7864 244.373 88.5871 246.252 88.3663 248.139C88.11 247.534 86.9423 245.199 86.8711 245.042C85.5326 242.906 81.702 239.652 78.9964 240.357C78.5501 240.486 78.1359 240.708 77.7811 241.008C77.4262 241.307 77.1386 241.679 76.937 242.097C76.7354 242.516 76.6244 242.973 76.6112 243.437C76.598 243.901 76.6829 244.363 76.8604 244.793C77.5724 246.644 79.7084 247.819 81.4599 248.353C83.4678 248.951 87.9676 248.353 88.3521 248.289C88.2453 249.143 88.1527 250.005 88.0459 250.859C87.6971 253.657 87.3339 256.47 87.0562 259.246C86.9637 260.208 86.9067 261.162 86.8427 262.094C86.4226 261.197 85.6323 259.574 85.5468 259.446C84.2083 257.31 80.3848 254.056 77.7148 254.761C77.2691 254.891 76.8557 255.113 76.5014 255.413C76.1472 255.713 75.86 256.084 75.6586 256.503C75.4572 256.921 75.346 257.377 75.3322 257.841C75.3185 258.305 75.4025 258.767 75.5788 259.197C76.2908 261.048 78.4268 262.223 80.1783 262.757C81.9299 263.291 85.7675 262.863 86.8355 262.721C86.743 264.309 86.686 265.889 86.7074 267.441C86.7074 268.118 86.7074 268.801 86.7715 269.442L86.8996 271.372C87.042 272.682 87.163 273.899 87.3197 275.124C87.398 275.736 87.4834 276.313 87.5689 276.911C87.277 275.943 86.7999 274.405 86.743 274.27C85.7319 271.984 82.471 268.161 79.6657 268.445C79.2056 268.506 78.7636 268.663 78.3681 268.906C77.9726 269.149 77.6326 269.472 77.3701 269.855C77.1076 270.237 76.9285 270.671 76.8443 271.127C76.7602 271.584 76.773 272.053 76.8818 272.504C77.2805 274.44 79.2029 275.929 80.8903 276.726C82.7487 277.609 87.1346 277.701 87.6757 277.709C87.8822 279.175 88.0958 280.592 88.3236 281.924C89.0356 286.117 89.7476 289.592 90.3315 292.013C90.9153 294.433 91.2713 295.815 91.2713 295.815C91.3586 296.047 91.5308 296.238 91.7531 296.349C91.9753 296.459 92.2313 296.482 92.4695 296.411C92.7076 296.341 92.9103 296.183 93.0367 295.969C93.1632 295.756 93.204 295.502 93.151 295.259C93.151 295.259 92.7166 294.056 92.1114 291.664Z" fill="#263238"/>
<path d="M86.6647 222.657C86.6647 222.657 91.2998 221.019 92.8591 219.488C94.1905 218.178 95.5291 216.149 95.2799 214.191C95.2363 213.728 95.0958 213.28 94.8675 212.875C94.6392 212.47 94.3282 212.118 93.9548 211.841C93.5814 211.564 93.1539 211.369 92.7001 211.269C92.2464 211.168 91.7765 211.164 91.3212 211.257C88.6013 211.891 86.7359 216.576 86.5294 219.089C86.508 219.296 86.6148 222.678 86.6647 222.657Z" fill="#263238"/>
<path d="M89.4414 292.668C87.6258 291.016 85.0626 288.609 82.1149 285.59C81.2676 284.722 80.3776 283.789 79.4805 282.821C79.8507 282.422 82.834 279.211 83.4962 277.267C84.0943 275.501 84.3648 273.088 83.2541 271.45C83.0067 271.057 82.6793 270.721 82.2934 270.464C81.9074 270.206 81.4715 270.033 81.0141 269.955C80.5566 269.877 80.0879 269.896 79.6384 270.012C79.189 270.127 78.7688 270.336 78.4054 270.624C76.2694 272.418 76.7179 277.445 77.6578 279.752C77.7147 279.901 78.6261 281.575 79.0818 282.415C78.5335 281.831 77.9924 281.247 77.4371 280.621C76.6325 279.738 75.8137 278.769 75.0091 277.844L73.7987 276.334C73.3787 275.829 73.044 275.295 72.6524 274.775C72.0971 273.999 71.5631 273.166 71.0291 272.333C71.9831 271.571 74.7457 269.271 75.5787 267.669C76.4118 266.067 77.0739 263.668 76.2195 261.888C76.0346 261.462 75.7619 261.08 75.4192 260.766C75.0766 260.453 74.6717 260.215 74.2309 260.068C73.7902 259.922 73.3235 259.87 72.8614 259.916C72.3992 259.962 71.952 260.105 71.5488 260.336C69.1565 261.76 68.8503 266.815 69.4128 269.243C69.4128 269.328 69.6122 269.827 69.8258 270.418C69.3274 269.592 68.829 268.773 68.3519 267.918C67.0063 265.498 65.7104 262.999 64.4003 260.492C64.1298 259.973 63.8521 259.453 63.5744 258.933C64.379 258.292 67.3907 255.829 68.2665 254.148C69.1423 252.468 69.7546 250.147 68.9073 248.367C68.7224 247.941 68.4497 247.559 68.107 247.245C67.7644 246.932 67.3594 246.694 66.9187 246.547C66.478 246.401 66.0113 246.349 65.5491 246.395C65.087 246.441 64.6397 246.584 64.2366 246.815C61.8443 248.239 61.5381 253.294 62.1006 255.722C62.1006 255.814 62.3355 256.434 62.5776 257.075C61.8656 255.722 61.0967 254.39 60.3206 253.08C58.9898 250.838 57.5128 248.685 55.8991 246.637C56.191 246.409 59.7795 243.597 60.7478 241.731C61.6093 240.079 62.243 237.73 61.3886 235.95C61.2043 235.523 60.9321 235.14 60.5898 234.826C60.2474 234.512 59.8426 234.273 59.4018 234.126C58.961 233.979 58.4941 233.926 58.0316 233.972C57.5691 234.017 57.1215 234.16 56.7179 234.39C54.3255 235.814 54.0194 240.877 54.5819 243.305C54.6246 243.476 55.4078 245.633 55.7068 246.395L55.657 246.316C54.0179 244.347 52.2096 242.524 50.2529 240.87C48.5339 239.389 46.732 238.008 44.8559 236.733C43.1044 235.537 41.4241 234.547 39.936 233.686C39.1243 233.223 38.3696 232.817 37.6719 232.447H37.7217C37.7715 232.447 35.6711 229.762 35.5145 229.599C33.7559 227.826 29.3201 225.441 26.8281 226.708C26.4198 226.929 26.0625 227.233 25.7797 227.601C25.4969 227.969 25.2948 228.393 25.1866 228.844C25.0785 229.296 25.0667 229.765 25.152 230.221C25.2373 230.677 25.4178 231.111 25.6818 231.493C26.7498 233.159 29.078 233.856 30.9435 233.999C32.8089 234.141 36.5896 232.845 37.5081 232.518C38.2201 232.917 39.0033 233.351 39.8435 233.856C41.3102 234.746 42.962 235.772 44.6779 237.003C45.1407 237.331 45.6178 237.715 46.1019 238.05C45.1906 237.623 43.9161 237.06 43.7879 237.018C41.4099 236.256 36.3689 236.178 34.7384 238.442C34.4798 238.827 34.3049 239.263 34.2251 239.72C34.1453 240.177 34.1623 240.646 34.275 241.096C34.3878 241.546 34.5937 241.968 34.8796 242.334C35.1654 242.699 35.5248 243.001 35.9346 243.219C37.6505 244.195 40.0357 243.746 41.7516 243.013C43.4675 242.279 46.3227 239.296 46.9279 238.648C47.9603 239.438 48.9998 240.279 50.0393 241.211C51.9374 242.884 53.6816 244.724 55.2511 246.708C55.3437 246.822 55.422 246.95 55.5146 247.071C55.0945 246.779 52.6666 245.362 52.5099 245.284C50.2315 244.266 45.2262 243.632 43.3607 245.718C43.0607 246.072 42.8384 246.486 42.7083 246.931C42.5782 247.377 42.5433 247.844 42.6057 248.304C42.6681 248.764 42.8266 249.206 43.0707 249.601C43.3149 249.995 43.6393 250.334 44.0229 250.596C45.6178 251.756 48.0457 251.571 49.8257 251.03C51.8834 250.41 55.4363 247.27 55.5715 247.157C57.0842 249.174 58.4637 251.289 59.7011 253.486C60.6267 255.11 61.4954 256.79 62.3498 258.47C61.8015 258.107 59.5659 256.79 59.395 256.712C57.1166 255.693 52.1112 255.067 50.2387 257.146C49.9379 257.5 49.7151 257.913 49.585 258.359C49.4548 258.805 49.4202 259.274 49.4834 259.734C49.5465 260.194 49.7061 260.636 49.9515 261.031C50.197 261.425 50.5229 261.763 50.9079 262.023C52.5028 263.191 54.9236 262.999 56.7107 262.465C58.7186 261.852 62.1362 258.862 62.4067 258.613C62.7983 259.382 63.1899 260.151 63.5744 260.92C64.8275 263.454 66.0664 265.989 67.3765 268.46C67.8251 269.314 68.3021 270.147 68.8005 270.973C67.9532 270.453 66.4011 269.549 66.2587 269.478C63.9803 268.46 58.9749 267.833 57.1095 269.912C56.8094 270.266 56.5871 270.679 56.457 271.125C56.3269 271.57 56.292 272.038 56.3544 272.498C56.4169 272.958 56.5753 273.4 56.8195 273.794C57.0636 274.189 57.388 274.528 57.7716 274.789C59.3665 275.957 61.7873 275.765 63.5744 275.231C65.3615 274.697 68.295 272.233 69.1138 271.528C69.9112 272.902 70.73 274.255 71.6058 275.537C71.9974 276.085 72.3605 276.669 72.7592 277.174L73.934 278.705C74.7742 279.723 75.5503 280.678 76.3548 281.603L77.5439 282.963C76.7678 282.308 75.5218 281.297 75.4079 281.219C73.2719 279.866 68.4587 278.485 66.2943 280.257C65.943 280.562 65.6598 280.937 65.463 281.358C65.2663 281.779 65.1604 282.237 65.1524 282.702C65.1443 283.167 65.2342 283.628 65.4163 284.056C65.5983 284.483 65.8683 284.868 66.2088 285.184C67.6328 286.573 70.0394 286.758 71.9048 286.495C73.9411 286.203 77.6507 283.86 78.1063 283.568C79.0818 284.672 80.0501 285.704 80.9543 286.722C83.8593 289.834 86.4011 292.319 88.2025 294.028C90.0039 295.736 91.0505 296.69 91.0505 296.69C91.2517 296.838 91.5015 296.903 91.7491 296.873C91.9968 296.844 92.2238 296.721 92.3841 296.529C92.5445 296.338 92.6261 296.093 92.6125 295.844C92.5988 295.595 92.491 295.361 92.3107 295.188C92.3107 295.188 91.2641 294.327 89.4414 292.668Z" fill="#263238"/>
<path d="M46.8353 238.121C46.8353 238.121 49.7901 234.198 50.2529 232.055C50.6445 230.232 50.6374 227.783 49.3487 226.302C49.0565 225.941 48.6918 225.645 48.2781 225.434C47.8644 225.223 47.4111 225.101 46.9473 225.077C46.4836 225.052 46.0198 225.124 45.5859 225.29C45.1521 225.456 44.7579 225.711 44.4288 226.039C42.5064 228.068 43.5388 233.009 44.7349 235.195C44.856 235.387 46.7997 238.157 46.8353 238.121Z" fill="#263238"/>
<g opacity="0.1">
<path d="M110.275 239.723C109.776 237.317 109.114 233.863 108.509 229.691C108.331 228.488 108.16 227.213 108.003 225.896C108.544 225.796 112.845 224.956 114.518 223.76C116.042 222.685 117.679 220.912 117.743 218.919C117.78 218.452 117.717 217.983 117.559 217.543C117.401 217.102 117.151 216.7 116.826 216.364C116.501 216.027 116.108 215.763 115.673 215.59C115.239 215.417 114.772 215.338 114.304 215.359C111.513 215.551 108.936 219.88 108.331 222.308C108.295 222.464 108.046 224.344 107.939 225.312C107.847 224.515 107.754 223.725 107.669 222.899C107.54 221.702 107.441 220.442 107.341 219.218C107.341 218.577 107.277 217.936 107.249 217.288C107.22 216.64 107.249 216.006 107.249 215.351C107.249 214.397 107.32 213.408 107.37 212.425C108.594 212.368 112.176 212.133 113.778 211.321C115.38 210.51 117.338 208.965 117.701 207.049C117.8 206.597 117.804 206.129 117.712 205.675C117.62 205.221 117.434 204.791 117.165 204.414C116.897 204.036 116.553 203.719 116.154 203.483C115.756 203.246 115.313 203.096 114.853 203.041C112.069 202.813 108.858 206.701 107.904 209.007C107.868 209.079 107.718 209.591 107.54 210.197C107.626 209.235 107.704 208.274 107.825 207.306C108.153 204.565 108.58 201.774 108.993 198.975C109.078 198.392 109.157 197.815 109.242 197.231C110.267 197.181 114.155 196.968 115.842 196.12C117.53 195.273 119.402 193.756 119.766 191.848C119.866 191.396 119.871 190.927 119.779 190.473C119.688 190.019 119.501 189.589 119.233 189.211C118.964 188.833 118.62 188.516 118.221 188.279C117.822 188.043 117.378 187.893 116.918 187.84C114.126 187.612 110.922 191.499 109.961 193.806C109.961 193.885 109.748 194.518 109.548 195.173C109.755 193.657 109.933 192.133 110.068 190.624C110.319 188.021 110.392 185.404 110.289 182.792C110.652 182.792 115.209 182.614 117.088 181.674C118.762 180.841 120.648 179.317 121.012 177.402C121.112 176.95 121.117 176.482 121.025 176.028C120.933 175.574 120.747 175.144 120.479 174.767C120.21 174.39 119.865 174.073 119.466 173.837C119.068 173.602 118.624 173.453 118.164 173.4C115.372 173.165 112.168 177.06 111.207 179.36C111.136 179.524 110.495 181.731 110.303 182.521C110.3 182.49 110.3 182.459 110.303 182.429C110.138 179.871 109.748 177.334 109.135 174.846C108.598 172.621 107.932 170.429 107.142 168.281C106.43 166.287 105.654 164.5 104.956 162.927C104.571 162.072 104.201 161.303 103.852 160.591H103.909C103.959 160.591 103.824 157.209 103.795 157.031C103.411 154.568 101.225 150.025 98.4625 149.584C98.0019 149.523 97.5336 149.559 97.0882 149.691C96.6427 149.824 96.2301 150.048 95.8774 150.351C95.5246 150.653 95.2396 151.026 95.0409 151.446C94.8423 151.866 94.7344 152.323 94.7245 152.788C94.6106 154.76 96.0844 156.69 97.5013 157.9C98.9182 159.111 102.749 160.292 103.689 160.563C104.037 161.318 104.401 162.122 104.792 163.019C105.454 164.607 106.216 166.401 106.85 168.409C107.028 168.943 107.199 169.527 107.377 170.082C106.885 169.2 106.195 167.996 106.109 167.889C104.636 165.875 100.598 162.849 97.9498 163.731C97.5129 163.889 97.1141 164.137 96.7795 164.459C96.4449 164.781 96.182 165.171 96.008 165.601C95.834 166.032 95.7528 166.495 95.7696 166.959C95.7865 167.423 95.901 167.878 96.1058 168.295C96.9103 170.097 99.1104 171.143 100.933 171.549C102.756 171.955 106.814 171.236 107.683 171.065C108.053 172.311 108.395 173.6 108.694 174.967C109.232 177.423 109.551 179.923 109.648 182.436C109.648 182.585 109.648 182.735 109.648 182.884C109.477 182.4 108.366 179.844 108.274 179.673C107.028 177.537 103.347 174.055 100.613 174.639C100.16 174.749 99.7364 174.952 99.368 175.236C98.9997 175.521 98.6955 175.879 98.4751 176.289C98.2548 176.699 98.1232 177.151 98.0892 177.615C98.0551 178.079 98.1192 178.545 98.2774 178.982C98.8826 180.855 100.962 182.129 102.72 182.742C104.749 183.454 109.47 182.998 109.641 182.984C109.68 185.505 109.554 188.026 109.264 190.531C109.057 192.389 108.772 194.262 108.466 196.135C108.231 195.515 107.206 193.137 107.106 192.973C105.867 190.837 102.186 187.363 99.4521 187.947C99.0008 188.056 98.5775 188.259 98.2098 188.543C97.8421 188.827 97.5382 189.185 97.318 189.594C97.0977 190.003 96.966 190.454 96.9313 190.917C96.8967 191.38 96.9598 191.845 97.1168 192.283C97.722 194.162 99.7939 195.43 101.56 196.049C103.539 196.761 108.06 196.327 108.445 196.291C108.302 197.138 108.167 197.993 108.025 198.847C107.548 201.624 107.063 204.415 106.672 207.178C106.529 208.139 106.43 209.086 106.33 210.026C105.953 209.107 105.234 207.455 105.155 207.32C103.909 205.184 100.228 201.702 97.4941 202.293C97.0428 202.403 96.6195 202.606 96.2518 202.89C95.8841 203.174 95.5802 203.532 95.36 203.941C95.1397 204.35 95.008 204.8 94.9733 205.264C94.9387 205.727 95.0018 206.192 95.1588 206.629C95.764 208.509 97.8359 209.776 99.6017 210.396C101.367 211.015 105.177 210.745 106.252 210.659C106.088 212.24 105.967 213.813 105.917 215.366C105.917 216.035 105.853 216.726 105.917 217.366C105.981 218.007 105.917 218.662 105.96 219.296C106.045 220.613 106.109 221.838 106.216 223.062C106.266 223.682 106.323 224.266 106.38 224.864C106.138 223.881 105.725 222.322 105.668 222.187C104.764 219.858 101.652 215.893 98.8541 216.056C98.3915 216.098 97.9427 216.236 97.5368 216.461C97.1309 216.687 96.7769 216.995 96.4978 217.366C96.2186 217.738 96.0204 218.163 95.9161 218.616C95.8118 219.068 95.8036 219.538 95.8921 219.994C96.2054 221.937 98.0282 223.511 99.7085 224.387C101.531 225.348 105.91 225.633 106.444 225.668C106.586 227.135 106.743 228.566 106.907 229.898C107.434 234.127 108.025 237.623 108.473 240.072C108.922 242.521 109.242 243.91 109.242 243.91C109.264 244.044 109.313 244.172 109.386 244.287C109.46 244.401 109.557 244.499 109.67 244.574C109.783 244.649 109.911 244.699 110.045 244.723C110.179 244.746 110.316 244.741 110.448 244.708C110.58 244.676 110.704 244.616 110.812 244.533C110.919 244.45 111.009 244.346 111.074 244.227C111.139 244.107 111.179 243.976 111.191 243.84C111.203 243.705 111.187 243.569 111.143 243.44C111.143 243.44 110.773 242.137 110.275 239.723Z" fill="black"/>
<path d="M107.882 170.545C107.882 170.545 112.582 169.121 114.212 167.648C115.636 166.409 117.06 164.437 116.854 162.464C116.831 162.001 116.711 161.547 116.502 161.133C116.293 160.718 115.998 160.353 115.638 160.06C115.278 159.767 114.861 159.554 114.412 159.433C113.964 159.312 113.496 159.287 113.037 159.36C110.289 159.873 108.217 164.472 107.904 166.95C107.875 167.163 107.832 170.56 107.882 170.545Z" fill="black"/>
</g>
<path d="M260.855 257.488C260.948 279.795 278.698 297.808 278.698 297.808C278.698 297.808 296.299 279.645 296.199 257.338C296.099 235.031 278.392 217.018 278.392 217.018C278.392 217.018 260.756 235.181 260.855 257.488Z" fill="#263238"/>
<path d="M278.698 297.808L278.356 217.018" stroke="white" stroke-width="0.910297" stroke-miterlimit="10"/>
<path d="M278.477 245.733L268.545 237.139" stroke="white" stroke-width="0.910297" stroke-miterlimit="10"/>
<path d="M278.691 259.082L290.866 241.282" stroke="white" stroke-width="0.910297" stroke-miterlimit="10"/>
<path d="M278.57 266.779L263.903 253.807" stroke="white" stroke-width="0.910297" stroke-miterlimit="10"/>
<path d="M278.769 277.146L293.166 264.202" stroke="white" stroke-width="0.910297" stroke-miterlimit="10"/>
<path d="M278.805 286.096L267.463 277.196" stroke="white" stroke-width="0.910297" stroke-miterlimit="10"/>
<path d="M248.758 291.92C257.381 301.589 271.984 302.6 271.984 302.6C271.984 302.6 272.632 287.954 264.01 278.313C255.387 268.673 240.756 267.69 240.756 267.69C240.756 267.69 240.136 282.308 248.758 291.92Z" fill="#FF725F"/>
<path d="M272.013 302.571L240.784 267.662" stroke="white" stroke-width="0.910297" stroke-miterlimit="10"/>
<path d="M251.884 280.065L244.266 280.158" stroke="white" stroke-width="0.910297" stroke-miterlimit="10"/>
<path d="M257.11 285.775L255.544 273.372" stroke="white" stroke-width="0.910297" stroke-miterlimit="10"/>
<path d="M260.015 289.165L248.666 289.179" stroke="white" stroke-width="0.910297" stroke-miterlimit="10"/>
<path d="M264.095 293.579L265.362 282.429" stroke="white" stroke-width="0.910297" stroke-miterlimit="10"/>
<path d="M267.555 297.452L259.211 297.951" stroke="white" stroke-width="0.910297" stroke-miterlimit="10"/>
<path d="M293.728 277.815C284.757 287.135 284.871 301.795 284.871 301.795C284.871 301.795 299.524 301.347 308.495 292.027C317.467 282.706 317.353 268.046 317.353 268.046C317.353 268.046 302.7 268.495 293.728 277.815Z" fill="#263238"/>
<path d="M284.871 301.795L317.353 268.046" stroke="white" stroke-width="0.910297" stroke-miterlimit="10"/>
<path d="M305.811 280.044L305.149 272.454" stroke="white" stroke-width="0.910297" stroke-miterlimit="10"/>
<path d="M300.507 285.683L312.76 283.198" stroke="white" stroke-width="0.910297" stroke-miterlimit="10"/>
<path d="M297.345 288.837L296.484 277.516" stroke="white" stroke-width="0.910297" stroke-miterlimit="10"/>
<path d="M293.244 293.23L304.458 293.657" stroke="white" stroke-width="0.910297" stroke-miterlimit="10"/>
<path d="M289.642 296.968L288.517 288.68" stroke="white" stroke-width="0.910297" stroke-miterlimit="10"/>
<path d="M265.911 75.3154H90.2744V301.383H265.911V75.3154Z" fill="white" stroke="#263238" stroke-width="0.987488" stroke-linecap="round" stroke-linejoin="round"/>
<g style="mix-blend-mode:multiply">
<path d="M118.292 75.3154H90.2744V301.383H118.292V75.3154Z" fill="#FF725F"/>
</g>
<path d="M226.886 108.715H173.023V115.052H226.886V108.715Z" fill="#FF725F" stroke="#263238" stroke-width="0.987488" stroke-linecap="round" stroke-linejoin="round"/>
<path d="M260.022 162.707H112.375V169.043H260.022V162.707Z" fill="#FF725F"/>
<path d="M260.022 249.798H112.375V256.135H260.022V249.798Z" fill="#FF725F"/>
<path d="M206.971 119.63H173.023V125.967H206.971V119.63Z" fill="#FF725F" stroke="#263238" stroke-width="0.987488" stroke-linecap="round" stroke-linejoin="round"/>
<path d="M206.971 130.317H173.023V136.654H206.971V130.317Z" fill="#FF725F" stroke="#263238" stroke-width="0.987488" stroke-linecap="round" stroke-linejoin="round"/>
<path d="M168.352 176.021H164.856V179.516H168.352V176.021Z" fill="#FF725F" stroke="#263238" stroke-width="0.987488" stroke-linecap="round" stroke-linejoin="round"/>
<path d="M168.352 220.983H164.856V224.479H168.352V220.983Z" fill="#FF725F" stroke="#263238" stroke-width="0.987488" stroke-linecap="round" stroke-linejoin="round"/>
<path d="M217.687 176.021H214.191V179.516H217.687V176.021Z" fill="#FF725F" stroke="#263238" stroke-width="0.987488" stroke-linecap="round" stroke-linejoin="round"/>
<path d="M217.687 220.983H214.191V224.479H217.687V220.983Z" fill="#FF725F" stroke="#263238" stroke-width="0.987488" stroke-linecap="round" stroke-linejoin="round"/>
<path d="M265.911 75.3154H90.2744V86.8142H265.911V75.3154Z" fill="#263238" stroke="#263238" stroke-width="0.987488" stroke-linecap="round" stroke-linejoin="round"/>
<path d="M204.935 178.449H174.02C173.755 178.449 173.502 178.344 173.315 178.157C173.128 177.97 173.023 177.716 173.023 177.452C173.023 177.188 173.128 176.934 173.315 176.747C173.502 176.56 173.755 176.455 174.02 176.455H204.935C205.199 176.455 205.453 176.56 205.64 176.747C205.827 176.934 205.932 177.188 205.932 177.452C205.932 177.716 205.827 177.97 205.64 178.157C205.453 178.344 205.199 178.449 204.935 178.449Z" fill="#263238"/>
<path d="M204.935 183.44H174.02C173.755 183.438 173.501 183.331 173.314 183.143C173.128 182.955 173.023 182.701 173.023 182.436C173.023 182.171 173.128 181.918 173.315 181.731C173.502 181.544 173.755 181.439 174.02 181.439H204.935C205.199 181.439 205.453 181.544 205.64 181.731C205.827 181.918 205.932 182.171 205.932 182.436C205.932 182.701 205.827 182.955 205.64 183.143C205.453 183.331 205.2 183.438 204.935 183.44Z" fill="#263238"/>
<path d="M204.935 188.424H174.02C173.755 188.424 173.502 188.319 173.315 188.132C173.128 187.945 173.023 187.691 173.023 187.427C173.023 187.163 173.128 186.909 173.315 186.722C173.502 186.535 173.755 186.43 174.02 186.43H204.935C205.199 186.43 205.453 186.535 205.64 186.722C205.827 186.909 205.932 187.163 205.932 187.427C205.932 187.691 205.827 187.945 205.64 188.132C205.453 188.319 205.199 188.424 204.935 188.424Z" fill="#263238"/>
<path d="M204.935 193.408H174.02C173.755 193.408 173.502 193.303 173.315 193.116C173.128 192.929 173.023 192.675 173.023 192.411C173.023 192.146 173.128 191.893 173.315 191.706C173.502 191.519 173.755 191.414 174.02 191.414H204.935C205.199 191.414 205.453 191.519 205.64 191.706C205.827 191.893 205.932 192.146 205.932 192.411C205.932 192.675 205.827 192.929 205.64 193.116C205.453 193.303 205.199 193.408 204.935 193.408Z" fill="#263238"/>
<path d="M204.935 198.392H174.02C173.755 198.392 173.502 198.287 173.315 198.1C173.128 197.913 173.023 197.659 173.023 197.395C173.023 197.13 173.128 196.877 173.315 196.69C173.502 196.503 173.755 196.398 174.02 196.398H204.935C205.199 196.398 205.453 196.503 205.64 196.69C205.827 196.877 205.932 197.13 205.932 197.395C205.932 197.659 205.827 197.913 205.64 198.1C205.453 198.287 205.199 198.392 204.935 198.392Z" fill="#263238"/>
<path d="M251.699 178.449H220.784C220.52 178.449 220.266 178.344 220.079 178.157C219.892 177.97 219.787 177.716 219.787 177.452C219.787 177.188 219.892 176.934 220.079 176.747C220.266 176.56 220.52 176.455 220.784 176.455H251.699C251.963 176.455 252.217 176.56 252.404 176.747C252.591 176.934 252.696 177.188 252.696 177.452C252.696 177.716 252.591 177.97 252.404 178.157C252.217 178.344 251.963 178.449 251.699 178.449Z" fill="#263238"/>
<path d="M251.699 183.44H220.784C220.519 183.438 220.265 183.331 220.079 183.143C219.892 182.955 219.787 182.701 219.787 182.436C219.787 182.171 219.892 181.918 220.079 181.731C220.266 181.544 220.52 181.439 220.784 181.439H251.699C251.963 181.439 252.217 181.544 252.404 181.731C252.591 181.918 252.696 182.171 252.696 182.436C252.696 182.701 252.591 182.955 252.404 183.143C252.217 183.331 251.964 183.438 251.699 183.44Z" fill="#263238"/>
<path d="M251.699 188.424H220.784C220.52 188.424 220.266 188.319 220.079 188.132C219.892 187.945 219.787 187.691 219.787 187.427C219.787 187.163 219.892 186.909 220.079 186.722C220.266 186.535 220.52 186.43 220.784 186.43H251.699C251.963 186.43 252.217 186.535 252.404 186.722C252.591 186.909 252.696 187.163 252.696 187.427C252.696 187.691 252.591 187.945 252.404 188.132C252.217 188.319 251.963 188.424 251.699 188.424Z" fill="#263238"/>
<path d="M251.699 193.408H220.784C220.52 193.408 220.266 193.303 220.079 193.116C219.892 192.929 219.787 192.675 219.787 192.411C219.787 192.146 219.892 191.893 220.079 191.706C220.266 191.519 220.52 191.414 220.784 191.414H251.699C251.963 191.414 252.217 191.519 252.404 191.706C252.591 191.893 252.696 192.146 252.696 192.411C252.696 192.675 252.591 192.929 252.404 193.116C252.217 193.303 251.963 193.408 251.699 193.408Z" fill="#263238"/>
<path d="M251.699 198.392H220.784C220.52 198.392 220.266 198.287 220.079 198.1C219.892 197.913 219.787 197.659 219.787 197.395C219.787 197.13 219.892 196.877 220.079 196.69C220.266 196.503 220.52 196.398 220.784 196.398H251.699C251.963 196.398 252.217 196.503 252.404 196.69C252.591 196.877 252.696 197.13 252.696 197.395C252.696 197.659 252.591 197.913 252.404 198.1C252.217 198.287 251.963 198.392 251.699 198.392Z" fill="#263238"/>
<path d="M204.935 222.664H174.02C173.755 222.662 173.501 222.555 173.314 222.367C173.128 222.179 173.023 221.925 173.023 221.66C173.023 221.396 173.128 221.142 173.315 220.955C173.502 220.768 173.755 220.663 174.02 220.663H204.935C205.199 220.663 205.453 220.768 205.64 220.955C205.827 221.142 205.932 221.396 205.932 221.66C205.932 221.925 205.827 222.179 205.64 222.367C205.453 222.555 205.2 222.662 204.935 222.664Z" fill="#263238"/>
<path d="M204.935 227.648H174.02C173.755 227.648 173.502 227.543 173.315 227.356C173.128 227.169 173.023 226.915 173.023 226.651C173.023 226.387 173.128 226.133 173.315 225.946C173.502 225.759 173.755 225.654 174.02 225.654H204.935C205.199 225.654 205.453 225.759 205.64 225.946C205.827 226.133 205.932 226.387 205.932 226.651C205.932 226.915 205.827 227.169 205.64 227.356C205.453 227.543 205.199 227.648 204.935 227.648Z" fill="#263238"/>
<path d="M204.935 232.632H174.02C173.755 232.632 173.502 232.527 173.315 232.34C173.128 232.153 173.023 231.899 173.023 231.635C173.023 231.371 173.128 231.117 173.315 230.93C173.502 230.743 173.755 230.638 174.02 230.638H204.935C205.199 230.638 205.453 230.743 205.64 230.93C205.827 231.117 205.932 231.371 205.932 231.635C205.932 231.899 205.827 232.153 205.64 232.34C205.453 232.527 205.199 232.632 204.935 232.632Z" fill="#263238"/>
<path d="M204.935 237.616H174.02C173.755 237.616 173.502 237.511 173.315 237.324C173.128 237.137 173.023 236.883 173.023 236.619C173.023 236.354 173.128 236.101 173.315 235.914C173.502 235.727 173.755 235.622 174.02 235.622H204.935C205.199 235.622 205.453 235.727 205.64 235.914C205.827 236.101 205.932 236.354 205.932 236.619C205.932 236.883 205.827 237.137 205.64 237.324C205.453 237.511 205.199 237.616 204.935 237.616Z" fill="#263238"/>
<path d="M204.935 242.607H174.02C173.755 242.607 173.502 242.502 173.315 242.315C173.128 242.128 173.023 241.874 173.023 241.61C173.023 241.346 173.128 241.092 173.315 240.905C173.502 240.718 173.755 240.613 174.02 240.613H204.935C205.199 240.613 205.453 240.718 205.64 240.905C205.827 241.092 205.932 241.346 205.932 241.61C205.932 241.874 205.827 242.128 205.64 242.315C205.453 242.502 205.199 242.607 204.935 242.607Z" fill="#263238"/>
<path d="M251.699 222.664H220.784C220.519 222.662 220.265 222.555 220.079 222.367C219.892 222.179 219.787 221.925 219.787 221.66C219.787 221.396 219.892 221.142 220.079 220.955C220.266 220.768 220.52 220.663 220.784 220.663H251.699C251.963 220.663 252.217 220.768 252.404 220.955C252.591 221.142 252.696 221.396 252.696 221.66C252.696 221.925 252.591 222.179 252.404 222.367C252.217 222.555 251.964 222.662 251.699 222.664Z" fill="#263238"/>
<path d="M251.699 227.648H220.784C220.52 227.648 220.266 227.543 220.079 227.356C219.892 227.169 219.787 226.915 219.787 226.651C219.787 226.387 219.892 226.133 220.079 225.946C220.266 225.759 220.52 225.654 220.784 225.654H251.699C251.963 225.654 252.217 225.759 252.404 225.946C252.591 226.133 252.696 226.387 252.696 226.651C252.696 226.915 252.591 227.169 252.404 227.356C252.217 227.543 251.963 227.648 251.699 227.648Z" fill="#263238"/>
<path d="M251.699 232.632H220.784C220.52 232.632 220.266 232.527 220.079 232.34C219.892 232.153 219.787 231.899 219.787 231.635C219.787 231.371 219.892 231.117 220.079 230.93C220.266 230.743 220.52 230.638 220.784 230.638H251.699C251.963 230.638 252.217 230.743 252.404 230.93C252.591 231.117 252.696 231.371 252.696 231.635C252.696 231.899 252.591 232.153 252.404 232.34C252.217 232.527 251.963 232.632 251.699 232.632Z" fill="#263238"/>
<path d="M251.699 237.616H220.784C220.52 237.616 220.266 237.511 220.079 237.324C219.892 237.137 219.787 236.883 219.787 236.619C219.787 236.354 219.892 236.101 220.079 235.914C220.266 235.727 220.52 235.622 220.784 235.622H251.699C251.963 235.622 252.217 235.727 252.404 235.914C252.591 236.101 252.696 236.354 252.696 236.619C252.696 236.883 252.591 237.137 252.404 237.324C252.217 237.511 251.963 237.616 251.699 237.616Z" fill="#263238"/>
<path d="M251.699 242.607H220.784C220.52 242.607 220.266 242.502 220.079 242.315C219.892 242.128 219.787 241.874 219.787 241.61C219.787 241.346 219.892 241.092 220.079 240.905C220.266 240.718 220.52 240.613 220.784 240.613H251.699C251.963 240.613 252.217 240.718 252.404 240.905C252.591 241.092 252.696 241.346 252.696 241.61C252.696 241.874 252.591 242.128 252.404 242.315C252.217 242.502 251.963 242.607 251.699 242.607Z" fill="#263238"/>
<path d="M251.699 265.362H220.784C220.52 265.362 220.266 265.257 220.079 265.07C219.892 264.883 219.787 264.63 219.787 264.365C219.787 264.101 219.892 263.848 220.079 263.661C220.266 263.474 220.52 263.369 220.784 263.369H251.699C251.963 263.369 252.217 263.474 252.404 263.661C252.591 263.848 252.696 264.101 252.696 264.365C252.696 264.63 252.591 264.883 252.404 265.07C252.217 265.257 251.963 265.362 251.699 265.362Z" fill="#263238"/>
<path d="M251.699 270.347H220.784C220.52 270.347 220.266 270.242 220.079 270.055C219.892 269.868 219.787 269.614 219.787 269.35C219.787 269.085 219.892 268.832 220.079 268.645C220.266 268.458 220.52 268.353 220.784 268.353H251.699C251.963 268.353 252.217 268.458 252.404 268.645C252.591 268.832 252.696 269.085 252.696 269.35C252.696 269.614 252.591 269.868 252.404 270.055C252.217 270.242 251.963 270.347 251.699 270.347Z" fill="#263238"/>
<path d="M251.699 275.337H220.784C220.52 275.337 220.266 275.232 220.079 275.045C219.892 274.858 219.787 274.605 219.787 274.341C219.787 274.076 219.892 273.823 220.079 273.636C220.266 273.449 220.52 273.344 220.784 273.344H251.699C251.963 273.344 252.217 273.449 252.404 273.636C252.591 273.823 252.696 274.076 252.696 274.341C252.696 274.605 252.591 274.858 252.404 275.045C252.217 275.232 251.963 275.337 251.699 275.337Z" fill="#263238"/>
<path d="M251.699 278.328H220.784C220.233 278.328 219.787 278.774 219.787 279.325C219.787 279.875 220.233 280.322 220.784 280.322H251.699C252.249 280.322 252.696 279.875 252.696 279.325C252.696 278.774 252.249 278.328 251.699 278.328Z" fill="#263238"/>
<path d="M251.699 285.306H220.784C220.52 285.306 220.266 285.201 220.079 285.014C219.892 284.827 219.787 284.573 219.787 284.309C219.787 284.044 219.892 283.791 220.079 283.604C220.266 283.417 220.52 283.312 220.784 283.312H251.699C251.963 283.312 252.217 283.417 252.404 283.604C252.591 283.791 252.696 284.044 252.696 284.309C252.696 284.573 252.591 284.827 252.404 285.014C252.217 285.201 251.963 285.306 251.699 285.306Z" fill="#263238"/>
<path d="M248.709 207.37C247.766 207.37 246.855 207.705 246.135 208.313C245.416 208.922 244.935 209.766 244.778 210.695H240.008C239.834 209.784 239.347 208.963 238.632 208.372C237.918 207.781 237.019 207.458 236.092 207.458C235.165 207.458 234.266 207.781 233.552 208.372C232.837 208.963 232.351 209.784 232.176 210.695H227.406C227.231 209.784 226.745 208.963 226.03 208.372C225.315 207.781 224.417 207.458 223.49 207.458C222.562 207.458 221.664 207.781 220.949 208.372C220.235 208.963 219.748 209.784 219.574 210.695H214.739C214.573 209.778 214.089 208.948 213.374 208.351C212.658 207.754 211.755 207.426 210.823 207.426C209.891 207.426 208.988 207.754 208.273 208.351C207.557 208.948 207.074 209.778 206.907 210.695H202.13C201.963 209.778 201.48 208.948 200.764 208.351C200.048 207.754 199.146 207.426 198.214 207.426C197.281 207.426 196.379 207.754 195.663 208.351C194.948 208.948 194.464 209.778 194.298 210.695H189.52C189.354 209.778 188.87 208.948 188.155 208.351C187.439 207.754 186.536 207.426 185.604 207.426C184.672 207.426 183.769 207.754 183.054 208.351C182.338 208.948 181.855 209.778 181.688 210.695H176.911C176.744 209.71 176.213 208.823 175.423 208.21C174.633 207.597 173.641 207.304 172.645 207.388C171.649 207.471 170.721 207.926 170.044 208.662C169.368 209.398 168.992 210.361 168.992 211.361C168.992 212.361 169.368 213.324 170.044 214.06C170.721 214.795 171.649 215.25 172.645 215.334C173.641 215.418 174.633 215.124 175.423 214.512C176.213 213.899 176.744 213.012 176.911 212.027H181.688C181.855 212.944 182.338 213.773 183.054 214.371C183.769 214.968 184.672 215.295 185.604 215.295C186.536 215.295 187.439 214.968 188.155 214.371C188.87 213.773 189.354 212.944 189.52 212.027H194.298C194.464 212.944 194.948 213.773 195.663 214.371C196.379 214.968 197.281 215.295 198.214 215.295C199.146 215.295 200.048 214.968 200.764 214.371C201.48 213.773 201.963 212.944 202.13 212.027H206.907C207.074 212.944 207.557 213.773 208.273 214.371C208.988 214.968 209.891 215.295 210.823 215.295C211.755 215.295 212.658 214.968 213.374 214.371C214.089 213.773 214.573 212.944 214.739 212.027H219.517C219.691 212.937 220.178 213.759 220.892 214.35C221.607 214.94 222.505 215.264 223.433 215.264C224.36 215.264 225.258 214.94 225.973 214.35C226.688 213.759 227.174 212.937 227.349 212.027H232.119C232.294 212.937 232.78 213.759 233.495 214.35C234.209 214.94 235.108 215.264 236.035 215.264C236.962 215.264 237.861 214.94 238.575 214.35C239.29 213.759 239.777 212.937 239.951 212.027H244.721C244.849 212.776 245.188 213.473 245.699 214.036C246.209 214.599 246.87 215.004 247.603 215.204C248.337 215.404 249.112 215.39 249.837 215.164C250.563 214.938 251.209 214.51 251.699 213.929C252.189 213.348 252.503 212.639 252.604 211.886C252.705 211.133 252.588 210.367 252.268 209.677C251.948 208.988 251.437 208.405 250.797 207.996C250.156 207.587 249.412 207.37 248.652 207.37H248.709Z" fill="#263238"/>
<path d="M155.707 263.739C154.378 263.738 153.077 264.131 151.971 264.869C150.865 265.606 150.002 266.655 149.492 267.883C148.983 269.112 148.849 270.463 149.107 271.767C149.366 273.072 150.005 274.27 150.945 275.211C151.885 276.151 153.082 276.792 154.386 277.052C155.69 277.312 157.042 277.179 158.271 276.671C159.499 276.162 160.549 275.301 161.288 274.195C162.027 273.09 162.421 271.79 162.421 270.461C162.422 269.578 162.249 268.704 161.912 267.889C161.575 267.074 161.081 266.333 160.457 265.708C159.834 265.084 159.093 264.589 158.278 264.251C157.463 263.913 156.589 263.739 155.707 263.739ZM155.707 273.807C155.043 273.808 154.394 273.613 153.841 273.245C153.289 272.877 152.858 272.353 152.603 271.74C152.348 271.127 152.281 270.452 152.411 269.801C152.54 269.15 152.859 268.552 153.329 268.082C153.798 267.613 154.396 267.293 155.048 267.164C155.699 267.035 156.374 267.102 156.987 267.357C157.6 267.611 158.123 268.042 158.491 268.595C158.859 269.147 159.055 269.797 159.054 270.461C159.052 271.347 158.699 272.198 158.071 272.825C157.444 273.452 156.594 273.805 155.707 273.807Z" fill="#FF725F" stroke="#263238" stroke-width="0.987488" stroke-linecap="round" stroke-linejoin="round"/>
<path d="M157.708 273.131L160.912 274.69C161.711 273.707 162.216 272.517 162.369 271.259C162.521 270.002 162.314 268.726 161.772 267.581C161.23 266.435 160.374 265.467 159.305 264.787C158.236 264.107 156.996 263.744 155.729 263.739V267.107C156.428 267.114 157.107 267.341 157.671 267.754C158.235 268.168 158.656 268.747 158.873 269.412C159.091 270.077 159.095 270.793 158.885 271.46C158.674 272.127 158.26 272.711 157.701 273.131H157.708Z" fill="#263238" stroke="#263238" stroke-width="0.987488" stroke-linecap="round" stroke-linejoin="round"/>
<path d="M158.94 285.512H152.532C152.322 285.513 152.113 285.473 151.919 285.393C151.725 285.313 151.548 285.196 151.399 285.048C151.25 284.9 151.132 284.723 151.052 284.529C150.971 284.335 150.93 284.127 150.93 283.917C150.93 283.493 151.098 283.085 151.399 282.785C151.699 282.484 152.107 282.315 152.532 282.315H158.94C159.365 282.315 159.772 282.484 160.072 282.785C160.373 283.085 160.542 283.493 160.542 283.917C160.542 284.127 160.5 284.335 160.42 284.529C160.339 284.723 160.221 284.9 160.072 285.048C159.923 285.196 159.747 285.313 159.552 285.393C159.358 285.473 159.15 285.513 158.94 285.512Z" fill="#FF725F" stroke="#263238" stroke-width="0.987488" stroke-linecap="round" stroke-linejoin="round"/>
<path d="M175.736 263.739C174.406 263.739 173.107 264.133 172.002 264.872C170.896 265.611 170.035 266.66 169.526 267.888C169.017 269.117 168.884 270.468 169.144 271.772C169.403 273.076 170.043 274.273 170.983 275.213C171.923 276.153 173.121 276.793 174.424 277.053C175.728 277.312 177.08 277.179 178.308 276.67C179.536 276.161 180.586 275.3 181.324 274.195C182.063 273.089 182.457 271.79 182.457 270.461C182.458 269.578 182.285 268.703 181.947 267.887C181.61 267.071 181.115 266.33 180.49 265.706C179.866 265.081 179.125 264.586 178.309 264.249C177.493 263.912 176.619 263.738 175.736 263.739ZM175.736 273.807C175.072 273.807 174.423 273.61 173.872 273.241C173.32 272.872 172.89 272.348 172.637 271.735C172.383 271.122 172.317 270.447 172.447 269.797C172.577 269.146 172.897 268.548 173.367 268.08C173.837 267.611 174.435 267.292 175.086 267.163C175.737 267.035 176.411 267.102 177.024 267.357C177.637 267.612 178.16 268.043 178.528 268.595C178.895 269.148 179.091 269.797 179.089 270.461C179.089 270.901 179.002 271.336 178.834 271.743C178.665 272.149 178.418 272.518 178.107 272.829C177.795 273.14 177.425 273.386 177.018 273.554C176.612 273.722 176.176 273.808 175.736 273.807Z" fill="#FF725F" stroke="#263238" stroke-width="0.987488" stroke-linecap="round" stroke-linejoin="round"/>
<path d="M182.422 269.756C182.245 268.111 181.47 266.589 180.243 265.48C179.017 264.37 177.425 263.751 175.771 263.739V267.107C176.655 267.116 177.499 267.474 178.12 268.102C178.741 268.73 179.089 269.577 179.089 270.461C179.082 270.589 179.068 270.718 179.047 270.845L182.422 269.756Z" fill="#263238" stroke="#263238" stroke-width="0.987488" stroke-linecap="round" stroke-linejoin="round"/>
<path d="M178.94 285.512H172.532C172.322 285.513 172.113 285.473 171.919 285.393C171.725 285.313 171.548 285.196 171.399 285.048C171.25 284.9 171.132 284.723 171.052 284.529C170.971 284.335 170.93 284.127 170.93 283.917C170.93 283.493 171.098 283.085 171.399 282.785C171.699 282.484 172.107 282.315 172.532 282.315H178.94C179.365 282.315 179.772 282.484 180.072 282.785C180.373 283.085 180.542 283.493 180.542 283.917C180.542 284.127 180.5 284.335 180.42 284.529C180.339 284.723 180.221 284.9 180.072 285.048C179.923 285.196 179.747 285.313 179.552 285.393C179.358 285.473 179.15 285.513 178.94 285.512Z" fill="#FF725F" stroke="#263238" stroke-width="0.987488" stroke-linecap="round" stroke-linejoin="round"/>
<path d="M195.885 263.739C194.556 263.739 193.257 264.133 192.151 264.872C191.046 265.611 190.184 266.66 189.676 267.888C189.167 269.117 189.034 270.468 189.293 271.772C189.553 273.076 190.193 274.273 191.133 275.213C192.073 276.153 193.27 276.793 194.574 277.053C195.878 277.312 197.229 277.179 198.457 276.67C199.686 276.161 200.735 275.3 201.474 274.195C202.212 273.089 202.607 271.79 202.607 270.461C202.608 269.578 202.434 268.703 202.097 267.887C201.759 267.071 201.264 266.33 200.64 265.706C200.016 265.081 199.274 264.586 198.459 264.249C197.643 263.912 196.768 263.738 195.885 263.739ZM195.885 273.807C195.222 273.807 194.573 273.61 194.021 273.241C193.47 272.872 193.04 272.348 192.786 271.735C192.533 271.122 192.467 270.447 192.597 269.797C192.727 269.146 193.047 268.548 193.517 268.08C193.986 267.611 194.584 267.292 195.235 267.163C195.886 267.035 196.561 267.102 197.174 267.357C197.786 267.612 198.31 268.043 198.677 268.595C199.045 269.148 199.24 269.797 199.239 270.461C199.239 270.901 199.152 271.336 198.983 271.743C198.815 272.149 198.568 272.518 198.256 272.829C197.945 273.14 197.575 273.386 197.168 273.554C196.761 273.722 196.325 273.808 195.885 273.807Z" fill="#FF725F" stroke="#263238" stroke-width="0.987488" stroke-linecap="round" stroke-linejoin="round"/>
<path d="M195.921 263.739V267.107C196.485 267.108 197.04 267.251 197.535 267.524C198.029 267.796 198.446 268.189 198.748 268.665C199.051 269.142 199.227 269.687 199.263 270.251C199.298 270.814 199.191 271.377 198.951 271.887C198.71 272.398 198.345 272.84 197.889 273.172C197.433 273.504 196.9 273.716 196.34 273.787C195.78 273.858 195.212 273.787 194.687 273.581C194.161 273.374 193.697 273.038 193.336 272.604L190.674 274.683C191.387 275.562 192.311 276.247 193.36 276.673C194.409 277.1 195.549 277.254 196.673 277.121C197.798 276.989 198.87 276.574 199.792 275.916C200.713 275.258 201.453 274.377 201.942 273.356C202.432 272.335 202.655 271.207 202.592 270.077C202.528 268.946 202.18 267.85 201.579 266.89C200.978 265.931 200.144 265.138 199.155 264.587C198.166 264.037 197.053 263.745 195.921 263.739Z" fill="#263238" stroke="#263238" stroke-width="0.987488" stroke-linecap="round" stroke-linejoin="round"/>
<path d="M199.089 285.512H192.681C192.471 285.513 192.263 285.473 192.069 285.393C191.875 285.313 191.698 285.196 191.549 285.048C191.4 284.9 191.282 284.723 191.201 284.529C191.121 284.335 191.079 284.127 191.079 283.917C191.078 283.707 191.119 283.498 191.199 283.303C191.28 283.108 191.398 282.931 191.546 282.783C191.695 282.634 191.872 282.516 192.067 282.435C192.262 282.355 192.471 282.315 192.681 282.315H199.089C199.514 282.315 199.922 282.484 200.222 282.785C200.523 283.085 200.691 283.493 200.691 283.917C200.691 284.127 200.65 284.335 200.569 284.529C200.489 284.723 200.371 284.9 200.222 285.048C200.073 285.196 199.896 285.313 199.702 285.393C199.508 285.473 199.299 285.513 199.089 285.512Z" fill="#FF725F" stroke="#263238" stroke-width="0.987488" stroke-linecap="round" stroke-linejoin="round"/>
<path d="M126.879 160.143C143.488 160.143 156.953 146.678 156.953 130.068C156.953 113.458 143.488 99.9932 126.879 99.9932C110.269 99.9932 96.8037 113.458 96.8037 130.068C96.8037 146.678 110.269 160.143 126.879 160.143Z" fill="white"/>
<path d="M135.992 297.388C135.992 297.388 140.335 303.917 139.737 306.501C139.139 309.086 135.323 308.289 133.514 305.505C131.706 302.721 127.106 298.563 127.939 296.775C128.773 294.988 134.369 295.8 135.992 297.388Z" fill="white" stroke="#263238" stroke-width="1.02307" stroke-linecap="round" stroke-linejoin="round"/>
<path d="M117.331 297.025C117.331 297.025 112.083 304.814 112.923 306.943C113.764 309.072 116.483 308.438 118.562 306.516C120.641 304.593 124.792 299.196 124.792 299.196C124.792 299.196 121.304 294.896 117.331 297.025Z" fill="white" stroke="#263238" stroke-width="1.02307" stroke-linecap="round" stroke-linejoin="round"/>
<path d="M112.923 306.943C114.346 307.139 115.794 306.856 117.039 306.139C119.431 304.928 123.603 299.467 123.603 299.467" stroke="#263238" stroke-width="0.767303" stroke-linecap="round" stroke-linejoin="round"/>
<path d="M129.399 298.079C129.399 298.079 131.67 302.351 134.226 304.771C136.782 307.192 138.035 307.883 139.716 306.502" stroke="#263238" stroke-width="0.767303" stroke-linecap="round" stroke-linejoin="round"/>
<path d="M109.961 199.823C109.961 199.823 105.369 209.193 105.575 213.023C105.782 216.854 106.622 236.234 107.875 242.621C109.128 249.008 110.36 264.914 111.214 271.272C112.069 277.63 117.544 292.525 117.544 292.525C117.544 292.525 116.704 295.936 117.33 296.997C117.957 298.057 124.586 299.809 124.792 299.168C124.999 298.527 126.045 296.612 126.216 294.697C126.387 292.781 123.297 272.34 124.55 267.869C125.803 263.397 126.045 233.337 126.216 230.239C126.387 227.142 126.166 221.695 126.166 221.695C126.539 221.81 126.937 221.811 127.31 221.698C127.683 221.585 128.013 221.364 128.26 221.062C129.093 219.994 131.855 248.937 132.695 255.75C133.536 262.564 131.649 264.479 131.022 268.737C130.396 272.995 128.936 286.829 128.936 288.538C128.936 290.247 127.056 295.772 127.889 296.84C128.722 297.908 130.495 297.73 131.222 297.929C133.4 298.534 135.102 297.587 135.935 297.374C136.768 297.16 137.473 294.077 137.473 294.077C137.473 294.077 144.18 275.124 145.433 267.242C146.686 259.36 148.772 244.736 148.359 235.793C147.946 226.85 145.433 208.737 145.433 208.737L144.807 203.411L109.961 199.823Z" fill="#263238" stroke="#263238" stroke-width="1.02307" stroke-linecap="round" stroke-linejoin="round"/>
<path d="M107.028 210.659C107.028 210.659 106.622 215.914 110.061 219.346" stroke="white" stroke-width="0.506629" stroke-linecap="round" stroke-linejoin="round"/>
<path d="M107.227 218.135C107.227 218.135 109.249 221.574 111.677 221.973" stroke="white" stroke-width="0.506629" stroke-linecap="round" stroke-linejoin="round"/>
<path d="M123.39 275.636C123.39 275.636 120.542 282.429 120.157 286.138C119.773 289.848 123.39 288.402 124.201 290.873C125.013 293.344 119.353 293.144 120.364 293.757C121.375 294.369 124.401 294.789 124.401 294.789" stroke="white" stroke-width="0.511535" stroke-linecap="round" stroke-linejoin="round"/>
<path d="M128.872 292.525C129.477 292.319 136.348 291.101 135.536 287.377C134.725 283.653 130.688 283.461 131.264 279.139C131.841 274.818 138.128 265.334 138.128 262.657C138.128 259.979 133.685 250.004 133.279 243.824" stroke="white" stroke-width="0.511535" stroke-linecap="round" stroke-linejoin="round"/>
<path d="M138.747 210.261C138.747 210.261 134.098 216.925 133.493 217.936C132.888 218.947 138.947 213.493 138.947 213.493" stroke="white" stroke-width="0.506629" stroke-linecap="round" stroke-linejoin="round"/>
<path d="M126.587 207.904C126.587 207.904 127.092 212.774 127.092 213.778V219.324" stroke="white" stroke-width="0.506629" stroke-linecap="round" stroke-linejoin="round"/>
<path d="M127.092 216.305C127.092 216.305 129.278 215.971 129.776 214.29C130.275 212.61 130.118 209.25 130.118 209.25" stroke="white" stroke-width="0.506629" stroke-linecap="round" stroke-linejoin="round"/>
<path d="M169.278 150.118C166.772 142.806 166.352 138.84 166.145 136.754C165.939 134.668 163.639 135.287 163.639 135.287C163.639 135.287 158.655 138.213 158.655 138.847C158.655 139.481 160.955 154.931 161.368 157.644C161.619 159.234 161.759 160.84 161.788 162.45C161.788 162.45 153.016 153.052 150.716 150.752C148.965 148.993 147.576 147.491 146.088 146.594C145.284 145.882 143.888 145.618 141.738 144.906C137.979 143.653 134.013 140.727 129.413 140.933C126.394 141.141 123.429 141.848 120.641 143.027C120.641 143.027 113.963 146.159 109.363 148.246C108.828 148.485 108.319 148.781 107.847 149.128C107.092 149.036 105.518 149.442 103.724 153.465C101.225 159.104 89.9471 173.935 88.0603 179.153C86.1735 184.372 90.1464 189.599 94.5323 193.771C97.6968 196.882 100.694 200.16 103.511 203.589L108.495 197.452C108.636 198.817 108.874 200.171 109.207 201.503C109.833 203.589 111.919 205.889 120.278 206.487C128.637 207.085 147.413 208.239 146.8 203.981C145.939 197.929 146.38 178.498 145.967 173.279C145.845 169.932 145.914 166.58 146.174 163.24C147.135 164.458 149.022 166.715 150.339 167.605C152.219 168.858 160.164 174.725 163.297 175.992C166.43 177.26 170.816 175.159 172.696 171.008C174.575 166.857 171.784 157.43 169.278 150.118ZM101.197 184.785C100.356 181.446 99.9435 180.193 99.9435 180.193C99.9435 180.193 105.298 174.426 107.875 171.35C108.224 179.602 108.445 188.63 108.203 189.955C108.013 192.175 108.063 194.409 108.352 196.619C106.957 194.704 101.909 187.662 101.197 184.785Z" fill="#FF725F" stroke="#263238" stroke-width="1.01326" stroke-linecap="round" stroke-linejoin="round"/>
<path opacity="0.1" d="M169.278 150.118C166.772 142.806 166.352 138.84 166.145 136.754C165.939 134.668 163.639 135.287 163.639 135.287C163.639 135.287 158.655 138.213 158.655 138.847C158.655 139.481 160.955 154.931 161.368 157.644C161.619 159.234 161.759 160.84 161.788 162.45C161.788 162.45 153.016 153.052 150.716 150.752C148.965 148.993 147.576 147.491 146.088 146.594C145.284 145.882 143.888 145.618 141.738 144.906C137.979 143.653 134.013 140.727 129.413 140.933C126.394 141.141 123.429 141.848 120.641 143.027C120.641 143.027 113.963 146.159 109.363 148.246C108.828 148.485 108.319 148.781 107.847 149.128C107.092 149.036 105.518 149.442 103.724 153.465C101.225 159.104 89.9471 173.935 88.0603 179.153C86.1735 184.372 90.1464 189.599 94.5323 193.771C97.6968 196.882 100.694 200.16 103.511 203.589L108.495 197.452C108.636 198.817 108.874 200.171 109.207 201.503C109.833 203.589 111.919 205.889 120.278 206.487C128.637 207.085 147.413 208.239 146.8 203.981C145.939 197.929 146.38 178.498 145.967 173.279C145.845 169.932 145.914 166.58 146.174 163.24C147.135 164.458 149.022 166.715 150.339 167.605C152.219 168.858 160.164 174.725 163.297 175.992C166.43 177.26 170.816 175.159 172.696 171.008C174.575 166.857 171.784 157.43 169.278 150.118ZM101.197 184.785C100.356 181.446 99.9435 180.193 99.9435 180.193C99.9435 180.193 105.298 174.426 107.875 171.35C108.224 179.602 108.445 188.63 108.203 189.955C108.013 192.175 108.063 194.409 108.352 196.619C106.957 194.704 101.909 187.662 101.197 184.785Z" fill="black"/>
<path d="M110.46 170.453C111.782 168.468 112.932 166.374 113.899 164.194" stroke="#263238" stroke-width="0.759943" stroke-linecap="round" stroke-linejoin="round"/>
<path d="M115.714 164.799C115.231 165.807 114.542 166.701 113.692 167.427" stroke="#263238" stroke-width="0.759943" stroke-linecap="round" stroke-linejoin="round"/>
<path d="M161.759 162.443C161.787 163.646 162.053 164.832 162.542 165.932C163.031 167.032 163.733 168.024 164.607 168.851" stroke="#263238" stroke-width="1.01326" stroke-linecap="round" stroke-linejoin="round"/>
<path d="M162.585 165.811C162.415 167.711 162.841 169.617 163.803 171.264" stroke="#263238" stroke-width="1.01326" stroke-linecap="round" stroke-linejoin="round"/>
<path d="M99.9435 180.193C99.9435 180.193 98.4056 178.733 94.6106 179.367" stroke="#263238" stroke-width="0.759943" stroke-linecap="round" stroke-linejoin="round"/>
<path d="M92.5103 178.527C92.5103 178.527 93.564 176.839 97.5583 178.1" stroke="#263238" stroke-width="0.759943" stroke-linecap="round" stroke-linejoin="round"/>
<path d="M150.617 156.839C149.776 157.046 146.195 163.155 146.195 163.155L154.832 160.841" stroke="#263238" stroke-width="0.759943" stroke-linecap="round" stroke-linejoin="round"/>
<path d="M125.818 152.674C125.818 152.674 127.434 154.895 131.072 153.891C134.71 152.887 135.921 149.043 135.344 146.615C134.767 144.187 122.585 146.209 125.818 152.674Z" fill="white" stroke="#263238" stroke-width="1.01326" stroke-linecap="round" stroke-linejoin="round"/>
<path d="M122.357 138.84C122.357 138.84 119.915 140.463 119.595 141.93C119.274 143.397 120.079 148.103 120.727 149.727C121.375 151.35 123.496 155.088 123.496 155.088C123.496 155.088 130.809 150.866 131.328 150.538C131.848 150.211 137.024 153.137 138.156 152.674C139.289 152.211 135.394 142.272 133.607 140.164C131.82 138.057 124.956 136.882 122.357 138.84Z" fill="white" stroke="#263238" stroke-width="1.01326" stroke-linecap="round" stroke-linejoin="round"/>
<path d="M121.04 133.471C121.04 133.471 121.204 136.07 121.531 139.972C121.859 143.874 123.176 146.956 125.312 148.744C127.448 150.531 130.51 151.506 131.321 150.531C132.133 149.555 133.108 145.497 132.745 143.055C132.382 140.613 131.934 135.422 131.934 135.422L121.04 133.471Z" fill="white" stroke="#263238" stroke-width="1.01326" stroke-linecap="round" stroke-linejoin="round"/>
<g style="mix-blend-mode:multiply" opacity="0.5">
<path d="M132.432 140.014C132.19 137.743 131.969 135.422 131.969 135.422L121.04 133.471C121.04 133.471 121.204 136.07 121.531 139.972C121.655 141.776 122.071 143.548 122.763 145.219L132.432 140.014Z" fill="#FF725F"/>
</g>
<path d="M117.48 129.584C117.48 129.584 115.045 127.149 114.554 129.256C114.062 131.364 116.02 134.625 118.783 133.806V131.862L117.48 129.584Z" fill="white" stroke="#263238" stroke-width="1.01326" stroke-linecap="round" stroke-linejoin="round"/>
<path opacity="0.5" d="M117.48 129.584C117.48 129.584 115.045 127.149 114.554 129.256C114.062 131.364 116.02 134.625 118.783 133.806V131.862L117.48 129.584Z" fill="#FF725F" stroke="#263238" stroke-width="1.01326" stroke-linecap="round" stroke-linejoin="round"/>
<path d="M115.344 125.184C115.344 125.184 119.41 136.07 122.984 138.185C126.558 140.299 133.707 142.243 135.657 134.625C137.608 127.006 132.411 115.935 130.624 112.681C128.836 109.427 122.172 108.459 117.95 111.705C113.728 114.952 112.767 118.028 115.344 125.184Z" fill="white" stroke="#263238" stroke-width="1.01326" stroke-linecap="round" stroke-linejoin="round"/>
<g style="mix-blend-mode:multiply" opacity="0.5">
<path d="M119.851 115.963C121.577 115.165 123.447 114.729 125.348 114.682L129.399 111.271C126.736 109.221 121.503 108.972 117.971 111.691C113.742 114.945 112.767 118.028 115.366 125.184C115.366 125.184 119.431 136.07 123.005 138.185C124.273 138.93 125.646 139.48 127.078 139.815C125.355 137.594 122.706 134.062 121.866 132.261C120.585 129.513 120.036 123.838 118.384 120.542C116.733 117.245 117.288 117.245 119.851 115.963Z" fill="#FF725F"/>
</g>
<path d="M128.367 121.93C128.367 121.93 129.99 124.856 129.342 125.49C129.122 125.679 128.858 125.809 128.573 125.866C128.289 125.924 127.995 125.907 127.719 125.817" stroke="#263238" stroke-width="1.01326" stroke-linecap="round" stroke-linejoin="round"/>
<path d="M120.891 121.446C120.891 121.446 121.218 119.495 123.653 119.495" stroke="#263238" stroke-width="2.02651" stroke-linecap="round" stroke-linejoin="round"/>
<path d="M122.357 123.397C122.357 123.397 124.144 124.209 124.792 122.421" stroke="#263238" stroke-width="1.01326" stroke-linecap="round" stroke-linejoin="round"/>
<path d="M130.154 122.094C130.154 122.094 131.941 122.905 132.596 121.118" stroke="#263238" stroke-width="1.01326" stroke-linecap="round" stroke-linejoin="round"/>
<path d="M128.673 118.363C129.107 117.921 129.693 117.66 130.312 117.635C130.931 117.61 131.537 117.822 132.005 118.228" stroke="#263238" stroke-width="2.02651" stroke-linecap="round" stroke-linejoin="round"/>
<path d="M135.992 128.366C134.098 127.54 129.584 125.718 128.075 126.479C126.124 127.455 121.083 130.872 121.083 133.471C121.083 133.471 117.836 129.085 117.836 127.455C117.836 125.824 119.132 125.319 118 123.233C116.868 121.147 115.23 120.954 115.722 118.519C116.17 116.262 120.663 113.87 122.842 113.535C124.203 114.687 125.936 115.304 127.719 115.273C131.279 115.273 134.219 112.987 134.219 110.153C134.219 107.32 131.307 105.041 127.719 105.041C126.92 105.037 126.125 105.155 125.362 105.39C121.959 105.141 121.311 107.661 118.954 109.043C116.597 110.424 115.116 114.496 115.116 114.496H115.216C113.493 117.017 113.5 120.057 115.373 125.176C115.373 125.176 119.438 136.063 123.012 138.178C126.587 140.292 133.735 142.236 135.686 134.618C136.16 132.569 136.264 130.452 135.992 128.366Z" fill="#263238" stroke="#263238" stroke-width="1.01326" stroke-linecap="round" stroke-linejoin="round"/>
<path d="M132.112 128.203C132.112 128.203 129.677 131.613 126.914 129.342" stroke="white" stroke-width="1.01326" stroke-linecap="round" stroke-linejoin="round"/>
<path d="M108.708 197.11C109.673 197.719 110.522 198.495 111.214 199.403C112.063 200.564 112.971 201.681 113.934 202.749C113.934 202.749 116.227 202.955 116.02 204.002C115.814 205.049 115.394 205.668 114.347 205.668C113.301 205.668 111.008 203.582 111.008 203.582L107.669 208.801C107.669 208.801 104.536 206.508 103.489 203.582L108.708 197.11Z" fill="white" stroke="#263238" stroke-width="1.01326" stroke-linecap="round" stroke-linejoin="round"/>
<path d="M126.879 160.143C143.488 160.143 156.953 146.678 156.953 130.068C156.953 113.458 143.488 99.9932 126.879 99.9932C110.269 99.9932 96.8037 113.458 96.8037 130.068C96.8037 146.678 110.269 160.143 126.879 160.143Z" stroke="#263238" stroke-width="2.02651" stroke-linecap="round" stroke-linejoin="round"/>
<path d="M154.034 124.222C154.034 124.222 151.941 124.009 151.528 125.262C151.115 126.515 150.481 127.768 150.481 128.608C150.481 129.448 150.688 130.068 151.734 130.274C152.781 130.481 153.408 129.021 153.408 129.021L154.034 124.222Z" fill="white" stroke="#263238" stroke-width="1.01326" stroke-linecap="round" stroke-linejoin="round"/>
<path d="M154.447 122.756C154.447 122.756 153.408 128.395 153.408 130.068C153.453 131.355 153.89 132.597 154.661 133.628C155.042 134.06 155.555 134.353 156.12 134.461L157.167 133.208C157.167 133.208 155.914 134.881 157.58 136.967C159.246 139.053 160.506 138.847 161.966 138.22C163.426 137.594 163.846 136.761 163.219 134.461C162.593 132.161 162.18 128.402 161.759 126.109C161.339 123.817 159.88 122.976 159.047 122.976C158.214 122.976 155.928 122.129 154.447 122.756Z" fill="white" stroke="#263238" stroke-width="1.01326" stroke-linecap="round" stroke-linejoin="round"/>
<path d="M153.685 131.243C153.685 131.243 153.315 129.947 154.889 129.762C156.462 129.577 159.061 129.299 159.061 129.299" stroke="#263238" stroke-width="0.506629" stroke-linecap="round" stroke-linejoin="round"/>
<path d="M153.87 127.911C153.87 127.911 157.48 126.978 158.783 127.163" stroke="#263238" stroke-width="0.506629" stroke-linecap="round" stroke-linejoin="round"/>
<path d="M154.148 125.312C155.495 125.072 156.86 124.948 158.228 124.941" stroke="#263238" stroke-width="0.506629" stroke-linecap="round" stroke-linejoin="round"/>
<path d="M155.351 132.261C155.637 132.518 155.98 132.703 156.351 132.801C156.723 132.899 157.112 132.907 157.487 132.824" stroke="#263238" stroke-width="0.506629" stroke-linecap="round" stroke-linejoin="round"/>
</svg>
